<svg width="218" height="27" viewBox="0 0 218 27" fill="none" xmlns="http://www.w3.org/2000/svg">
<path d="M0.788186 2.45292C0.538046 2.33594 0.4301 2.03833 0.547082 1.78819C0.664064 1.53805 0.961675 1.4301 1.21181 1.54708L0.788186 2.45292ZM218 2L214.665 6.71276L212.251 1.46805L218 2ZM1.21181 1.54708C2.14898 1.98536 3.08929 2.41813 4.03269 2.84535L3.62018 3.7563C2.67306 3.3274 1.72905 2.89293 0.788186 2.45292L1.21181 1.54708ZM9.72108 5.3379C11.6252 6.14461 13.5412 6.92893 15.4689 7.69053L15.1014 8.62057C13.1661 7.85597 11.2426 7.06856 9.33098 6.25867L9.72108 5.3379ZM21.2726 9.9018C23.2137 10.6143 25.1659 11.3039 27.129 11.9704L26.8075 12.9173C24.8367 12.2482 22.8767 11.5558 20.928 10.8406L21.2726 9.9018ZM33.0344 13.895C35.0074 14.5114 36.9908 15.1046 38.9843 15.6742L38.7096 16.6358C36.7082 16.0639 34.717 15.4683 32.7362 14.8495L33.0344 13.895ZM44.9762 17.3074C46.9768 17.8265 48.987 18.3221 51.0066 18.7937L50.7791 19.7675C48.7517 19.294 46.7336 18.7965 44.7251 18.2754L44.9762 17.3074ZM57.0717 20.1323C59.0949 20.553 61.127 20.9499 63.1676 21.3226L62.988 22.3063C60.9394 21.9321 58.8993 21.5337 56.8681 21.1114L57.0717 20.1323ZM69.29 22.3639C71.3307 22.6855 73.3795 22.983 75.4362 23.2562L75.3045 24.2475C73.2399 23.9733 71.183 23.6746 69.1343 23.3517L69.29 22.3639ZM81.6028 23.9993C83.6565 24.2216 85.7177 24.4197 87.7858 24.5932L87.7022 25.5897C85.626 25.4155 83.5569 25.2167 81.4952 24.9935L81.6028 23.9993ZM93.98 25.0379C96.0414 25.161 98.1094 25.2597 100.184 25.3338L100.148 26.3332C98.0657 26.2588 95.9897 26.1597 93.9204 26.0361L93.98 25.0379ZM106.394 25.4816C107.428 25.4938 108.463 25.5 109.5 25.5V26.5C108.459 26.5 107.42 26.4938 106.382 26.4815L106.394 25.4816ZM109.5 25.5C110.537 25.5 111.572 25.4938 112.606 25.4816L112.618 26.4815C111.58 26.4938 110.541 26.5 109.5 26.5V25.5ZM118.816 25.3338C120.891 25.2597 122.959 25.161 125.02 25.0379L125.08 26.0361C123.01 26.1597 120.934 26.2588 118.852 26.3332L118.816 25.3338ZM131.214 24.5932C133.282 24.4197 135.343 24.2216 137.397 23.9993L137.505 24.9935C135.443 25.2167 133.374 25.4155 131.298 25.5897L131.214 24.5932ZM143.564 23.2562C145.62 22.983 147.669 22.6855 149.71 22.3639L149.866 23.3517C147.817 23.6746 145.76 23.9733 143.695 24.2475L143.564 23.2562ZM155.832 21.3226C157.873 20.9499 159.905 20.553 161.928 20.1323L162.132 21.1114C160.101 21.5337 158.061 21.9321 156.012 22.3063L155.832 21.3226ZM167.993 18.7937C170.013 18.3221 172.023 17.8265 174.024 17.3074L174.275 18.2754C172.266 18.7965 170.248 19.294 168.221 19.7675L167.993 18.7937ZM180.016 15.6742C182.009 15.1046 183.993 14.5114 185.966 13.895L186.264 14.8495C184.283 15.4683 182.292 16.0639 180.29 16.6358L180.016 15.6742ZM191.871 11.9704C193.834 11.3039 195.786 10.6143 197.727 9.90181L198.072 10.8406C196.123 11.5558 194.163 12.2482 192.193 12.9173L191.871 11.9704ZM203.531 7.69053C205.459 6.92893 207.375 6.14461 209.279 5.3379L209.669 6.25867C207.757 7.06856 205.834 7.85597 203.899 8.62058L203.531 7.69053ZM0.576372 2.90584C0.0760921 2.67187 -0.1398 2.07665 0.094164 1.57637C0.328128 1.07609 0.923349 0.860201 1.42363 1.09416L0.576372 2.90584ZM218 2L211.33 11.4255L206.502 0.936108L218 2ZM1.42363 1.09416C2.35895 1.53158 3.29741 1.9635 4.23895 2.38987L3.41392 4.21177C2.46494 3.78203 1.51908 3.34671 0.576372 2.90584L1.42363 1.09416ZM9.91614 4.87751C11.8165 5.68263 13.7287 6.46541 15.6526 7.22551L14.9177 9.08559C12.9786 8.31949 11.0513 7.53053 9.13592 6.71905L9.91614 4.87751ZM21.4449 9.43242C23.3821 10.1435 25.3305 10.8318 27.2897 11.4969L26.6467 13.3907C24.6721 12.7203 22.7083 12.0266 20.7558 11.3099L21.4449 9.43242ZM33.1835 13.4177C35.1526 14.0329 37.1321 14.625 39.1217 15.1935L38.5722 17.1165C36.5669 16.5435 34.5718 15.9468 32.5871 15.3267L33.1835 13.4177ZM45.1018 16.8235C47.0985 17.3415 49.1047 17.8361 51.1203 18.3068L50.6654 20.2544C48.634 19.78 46.6119 19.2815 44.5995 18.7594L45.1018 16.8235ZM57.1735 19.6428C59.1928 20.0627 61.2209 20.4587 63.2575 20.8307L62.8981 22.7982C60.8455 22.4233 58.8015 22.0241 56.7663 21.6009L57.1735 19.6428ZM69.3678 21.87C71.4045 22.191 73.4494 22.4879 75.502 22.7605L75.2387 24.7431C73.17 24.4684 71.1092 24.1691 69.0564 23.8456L69.3678 21.87ZM81.6566 23.5022C83.7064 23.7241 85.7635 23.9218 87.8276 24.0949L87.6604 26.0879C85.5802 25.9134 83.5071 25.7142 81.4414 25.4906L81.6566 23.5022ZM94.0098 24.5388C96.0672 24.6616 98.1312 24.7602 100.202 24.8342L100.13 26.8329C98.0439 26.7584 95.9639 26.659 93.8906 26.5352L94.0098 24.5388ZM106.4 24.9816C107.432 24.9939 108.465 25 109.5 25V27C108.457 27 107.416 26.9938 106.376 26.9815L106.4 24.9816ZM109.5 25C110.535 25 111.568 24.9939 112.6 24.9816L112.624 26.9815C111.584 26.9938 110.543 27 109.5 27V25ZM118.798 24.8342C120.869 24.7602 122.933 24.6616 124.99 24.5388L125.109 26.5352C123.036 26.659 120.956 26.7584 118.87 26.8329L118.798 24.8342ZM131.172 24.0949C133.237 23.9218 135.294 23.7241 137.343 23.5022L137.559 25.4906C135.493 25.7142 133.42 25.9134 131.34 26.0879L131.172 24.0949ZM143.498 22.7605C145.551 22.4879 147.595 22.191 149.632 21.87L149.944 23.8456C147.891 24.1691 145.83 24.4684 143.761 24.7431L143.498 22.7605ZM155.743 20.8307C157.779 20.4587 159.807 20.0627 161.826 19.6428L162.234 21.6009C160.199 22.0241 158.154 22.4233 156.102 22.7982L155.743 20.8307ZM167.88 18.3068C169.895 17.8361 171.902 17.3415 173.898 16.8235L174.4 18.7594C172.388 19.2815 170.366 19.78 168.335 20.2544L167.88 18.3068ZM179.878 15.1935C181.868 14.625 183.847 14.0329 185.817 13.4177L186.413 15.3267C184.428 15.9468 182.433 16.5435 180.428 17.1165L179.878 15.1935ZM191.71 11.4969C193.669 10.8318 195.618 10.1435 197.555 9.43243L198.244 11.3099C196.292 12.0266 194.328 12.7203 192.353 13.3908L191.71 11.4969ZM203.347 7.22551C205.271 6.46541 207.184 5.68264 209.084 4.87752L209.864 6.71906C207.949 7.53053 206.021 8.31949 204.082 9.0856L203.347 7.22551Z" fill="#BA181B"/>
</svg>
