<svg width="212" height="26" viewBox="0 0 212 26" fill="none" xmlns="http://www.w3.org/2000/svg">
<path d="M0.783281 24.5494C0.534426 24.6691 0.429718 24.9679 0.549408 25.2167C0.669098 25.4656 0.967864 25.5703 1.21672 25.4506L0.783281 24.5494ZM212 25L208.716 20.2516L206.246 25.47L212 25ZM1.21672 25.4506C2.12495 25.0138 3.0362 24.5824 3.95045 24.1566L3.52823 23.2501C2.61023 23.6777 1.69523 24.1108 0.783281 24.5494L1.21672 25.4506ZM9.4651 21.671C11.3119 20.866 13.1703 20.0833 15.0399 19.3233L14.6633 18.3969C12.786 19.1601 10.92 19.946 9.06554 20.7542L9.4651 21.671ZM20.6716 17.1153C22.556 16.4035 24.4512 15.7145 26.3568 15.0485L26.027 14.1045C24.1134 14.7732 22.2104 15.4651 20.3183 16.1798L20.6716 17.1153ZM32.092 13.1246C34.009 12.508 35.9361 11.9147 37.8729 11.3449L37.5907 10.3855C35.6458 10.9577 33.7108 11.5535 31.7858 12.1726L32.092 13.1246ZM43.6967 9.71048C45.6419 9.19079 47.5964 8.69467 49.5599 8.22243L49.3261 7.25016C47.3544 7.72435 45.3918 8.22252 43.4386 8.74436L43.6967 9.71048ZM55.4588 6.88168C57.4271 6.46016 59.404 6.06253 61.3892 5.6891L61.2044 4.70633C59.2109 5.08131 57.2258 5.48059 55.2494 5.90385L55.4588 6.88168ZM67.347 4.64536C69.3333 4.32291 71.3276 4.02459 73.3294 3.75072L73.1938 2.75995C71.1838 3.03495 69.1813 3.3345 67.1868 3.65828L67.347 4.64536ZM79.3327 3.00548C81.3324 2.78249 83.3392 2.58383 85.353 2.40979L85.2669 1.41351C83.2449 1.58826 81.2298 1.78773 79.2219 2.01164L79.3327 3.00548ZM91.3848 1.96368C93.3924 1.84015 95.4064 1.74107 97.4266 1.66671L97.3898 0.667391C95.3614 0.742049 93.3392 0.841537 91.3234 0.965566L91.3848 1.96368ZM103.475 1.5185C104.482 1.50618 105.49 1.5 106.5 1.5V0.5C105.486 0.5 104.474 0.506202 103.462 0.518572L103.475 1.5185ZM106.5 1.5C107.51 1.5 108.518 1.50618 109.525 1.5185L109.538 0.518572C108.527 0.506202 107.514 0.5 106.5 0.5V1.5ZM115.573 1.66671C117.594 1.74107 119.608 1.84015 121.615 1.96368L121.677 0.965567C119.661 0.841537 117.639 0.742049 115.61 0.667391L115.573 1.66671ZM127.647 2.40979C129.661 2.58383 131.668 2.78249 133.667 3.00548L133.778 2.01164C131.77 1.78773 129.755 1.58826 127.733 1.41351L127.647 2.40979ZM139.671 3.75072C141.672 4.02459 143.667 4.32291 145.653 4.64536L145.813 3.65828C143.819 3.3345 141.816 3.03495 139.806 2.75995L139.671 3.75072ZM151.611 5.6891C153.596 6.06253 155.573 6.46016 157.541 6.88168L157.751 5.90385C155.774 5.48059 153.789 5.08131 151.796 4.70633L151.611 5.6891ZM163.44 8.22244C165.404 8.69467 167.358 9.19079 169.303 9.71048L169.561 8.74436C167.608 8.22252 165.646 7.72435 163.674 7.25016L163.44 8.22244ZM175.127 11.3449C177.064 11.9147 178.991 12.508 180.908 13.1246L181.214 12.1726C179.289 11.5535 177.354 10.9577 175.409 10.3855L175.127 11.3449ZM186.643 15.0485C188.549 15.7145 190.444 16.4035 192.328 17.1153L192.682 16.1798C190.79 15.4651 188.887 14.7732 186.973 14.1045L186.643 15.0485ZM197.96 19.3233C199.83 20.0833 201.688 20.866 203.535 21.671L203.934 20.7542C202.08 19.946 200.214 19.1601 198.337 18.3969L197.96 19.3233ZM0.566563 24.0988C0.0688528 24.3382 -0.140565 24.9357 0.0988162 25.4334C0.338197 25.9311 0.935727 26.1406 1.43344 25.9012L0.566563 24.0988ZM212 25L205.432 15.5032L200.491 25.94L212 25ZM1.43344 25.9012C2.3398 25.4653 3.24919 25.0348 4.16156 24.6098L3.31713 22.7968C2.39725 23.2253 1.48038 23.6593 0.566563 24.0988L1.43344 25.9012ZM9.66487 22.1293C11.5079 21.326 13.3625 20.545 15.2282 19.7865L14.475 17.9337C12.5938 18.6985 10.724 19.486 8.86577 20.2959L9.66487 22.1293ZM20.8483 17.583C22.7288 16.8727 24.62 16.1851 26.5218 15.5206L25.862 13.6325C23.9445 14.3026 22.0376 14.9959 20.1416 15.7121L20.8483 17.583ZM32.2451 13.6005C34.1581 12.9853 36.0812 12.3932 38.014 11.8245L37.4496 9.90586C35.5007 10.4792 33.5616 11.0762 31.6327 11.6966L32.2451 13.6005ZM43.8258 10.1935C45.7669 9.67492 47.7174 9.17983 49.6768 8.70857L49.2092 6.76402C47.2334 7.23919 45.2668 7.73839 43.3096 8.26131L43.8258 10.1935ZM55.5635 7.37059C57.5277 6.94995 59.5005 6.55314 61.4816 6.18048L61.1119 4.21495C59.1144 4.5907 57.1252 4.9908 55.1447 5.41493L55.5635 7.37059ZM67.4271 5.1389C69.4094 4.81711 71.3995 4.51942 73.3972 4.24611L73.1261 2.26457C71.1119 2.54013 69.1053 2.84029 67.1067 3.16474L67.4271 5.1389ZM79.3882 3.5024C81.3837 3.27987 83.3864 3.08161 85.396 2.90793L85.2238 0.915362C83.1977 1.09047 81.1785 1.29035 79.1665 1.51472L79.3882 3.5024ZM91.4156 2.46273C93.419 2.33946 95.4289 2.24058 97.445 2.16638L97.3714 0.167729C95.3389 0.242538 93.3126 0.342228 91.2927 0.46651L91.4156 2.46273ZM103.481 2.01846C104.486 2.00616 105.492 2 106.5 2V0C105.484 0 104.469 0.0062148 103.456 0.0186093L103.481 2.01846ZM106.5 2C107.508 2 108.514 2.00616 109.519 2.01846L109.544 0.0186095C108.531 0.00621486 107.516 0 106.5 0V2ZM115.555 2.16638C117.571 2.24058 119.581 2.33946 121.584 2.46274L121.707 0.466511C119.687 0.342229 117.661 0.242539 115.629 0.167729L115.555 2.16638ZM127.604 2.90794C129.614 3.08161 131.616 3.27987 133.612 3.5024L133.834 1.51472C131.822 1.29036 129.802 1.09047 127.776 0.915363L127.604 2.90794ZM139.603 4.24611C141.601 4.51942 143.591 4.81711 145.573 5.1389L145.893 3.16474C143.895 2.84029 141.888 2.54013 139.874 2.26457L139.603 4.24611ZM151.518 6.18048C153.499 6.55314 155.472 6.94995 157.436 7.37059L157.855 5.41493C155.875 4.9908 153.886 4.5907 151.888 4.21495L151.518 6.18048ZM163.323 8.70857C165.283 9.17983 167.233 9.67492 169.174 10.1935L169.69 8.26131C167.733 7.73839 165.767 7.23919 163.791 6.76402L163.323 8.70857ZM174.986 11.8245C176.919 12.3932 178.842 12.9853 180.755 13.6005L181.367 11.6966C179.438 11.0762 177.499 10.4792 175.55 9.90586L174.986 11.8245ZM186.478 15.5206C188.38 16.1851 190.271 16.8727 192.152 17.583L192.858 15.7121C190.962 14.9959 189.055 14.3026 187.138 13.6325L186.478 15.5206ZM197.772 19.7865C199.638 20.545 201.492 21.326 203.335 22.1293L204.134 20.2959C202.276 19.486 200.406 18.6985 198.525 17.9337L197.772 19.7865Z" fill="#BA181B"/>
</svg>
