<svg width="495" height="325" viewBox="0 0 495 325" fill="none" xmlns="http://www.w3.org/2000/svg">
<path d="M118.402 262.816H101.627V312.233C101.627 318.126 106.388 322.887 112.281 322.887C113.415 322.887 114.435 322.773 115.455 322.433C116.135 322.207 116.815 321.98 117.382 321.64C117.948 321.3 118.515 320.96 119.082 320.507C119.875 319.826 120.555 319.033 121.122 318.24C121.462 317.673 121.802 317.106 122.142 316.426C122.369 315.746 122.595 315.066 122.709 314.386C122.822 313.706 122.935 313.026 122.935 312.233V292.625V283.898V267.35C122.935 264.743 120.895 262.816 118.402 262.816Z" fill="#F9E67B" stroke="#BA181B" stroke-opacity="0.5" stroke-width="2.1719" stroke-miterlimit="10"/>
<path d="M488.575 262.816H471.687V312.233C471.687 318.126 476.448 322.887 482.341 322.887C483.475 322.887 484.495 322.773 485.515 322.433C486.195 322.207 486.875 321.98 487.442 321.64C488.008 321.3 488.575 320.96 489.142 320.507C489.935 319.826 490.615 319.033 491.182 318.24C491.522 317.673 491.862 317.106 492.202 316.426C492.429 315.746 492.655 315.066 492.769 314.386C492.882 313.706 492.995 313.026 492.995 312.233V292.625V283.898V267.35C493.109 264.743 491.069 262.816 488.575 262.816Z" fill="#F9E67B" stroke="#BA181B" stroke-opacity="0.5" stroke-width="2.1719" stroke-miterlimit="10"/>
<path d="M152.177 70.8179C156.371 68.891 160.565 67.1909 164.645 65.9441" stroke="#161A1D" stroke-width="2.1719" stroke-miterlimit="10" stroke-linecap="round"/>
<path d="M141.07 65.9446C142.544 65.0378 144.017 64.2444 145.604 63.451C154.558 58.6905 163.512 55.5168 171.672 53.93" stroke="#BA181B" stroke-width="2.1719" stroke-miterlimit="10" stroke-linecap="round"/>
<path d="M126.676 63.4509C129.283 61.8641 132.116 60.2773 135.063 58.8038C136.99 57.897 138.917 56.9903 140.843 56.1968" stroke="#161A1D" stroke-width="2.1719" stroke-miterlimit="10" stroke-linecap="round"/>
<path d="M342.931 70.8179C338.738 68.891 334.544 67.1909 330.464 65.9441" stroke="#161A1D" stroke-width="2.1719" stroke-miterlimit="10" stroke-linecap="round"/>
<path d="M354.039 65.9446C352.565 65.0378 351.092 64.2444 349.505 63.451C340.551 58.6905 331.597 55.5168 323.437 53.93" stroke="#BA181B" stroke-width="2.1719" stroke-miterlimit="10" stroke-linecap="round"/>
<path d="M368.546 63.4509C365.94 61.8641 363.106 60.2773 360.159 58.8038C358.232 57.897 356.306 56.9903 354.379 56.1968" stroke="#161A1D" stroke-width="2.1719" stroke-miterlimit="10" stroke-linecap="round"/>
<path d="M289.286 18.6811V32.962V43.956V54.95V65.944V76.938V87.9321V98.9261C289.286 99.6061 289.173 100.286 289.059 100.853C288.946 101.533 288.719 102.1 288.493 102.666C288.266 103.233 287.926 103.8 287.586 104.366C287.246 104.933 286.792 105.386 286.339 105.84C285.886 106.293 285.432 106.633 284.866 107.087C284.299 107.427 283.732 107.767 283.166 107.993C282.599 108.22 281.919 108.447 281.352 108.56C280.672 108.673 280.105 108.787 279.425 108.787H271.605H263.784H255.964H248.143H240.322H232.502H224.681H216.861C216.181 108.787 215.501 108.673 214.934 108.56C214.254 108.447 213.687 108.22 213.12 107.993C212.554 107.767 211.987 107.427 211.42 107.087C210.854 106.747 210.4 106.293 209.947 105.84C209.494 105.386 209.153 104.933 208.7 104.366C208.36 103.8 208.02 103.233 207.793 102.666C207.567 102.1 207.34 101.42 207.227 100.853C207.113 100.173 207 99.6061 207 98.9261V87.9321V76.938V65.944V54.95V43.956V32.962V21.968V10.8606C207 10.1806 207.113 9.50053 207.227 8.93383C207.34 8.25378 207.567 7.68708 207.793 7.12038C208.02 6.55368 208.36 5.98698 208.7 5.42027C209.04 4.85357 209.494 4.40021 209.947 3.94685C210.4 3.49349 210.854 3.15347 211.42 2.70011C211.987 2.36008 212.554 2.02006 213.12 1.79338C213.687 1.5667 214.367 1.34002 214.934 1.22668C215.614 1.11334 216.181 1 216.861 1H224.681H232.502H240.322H248.143H255.964H263.784H271.605L289.286 18.6811Z" fill="white" stroke="#BA181B" stroke-width="2" stroke-miterlimit="10" stroke-linecap="round" stroke-dasharray="10.16 10.16"/>
<path d="M288.867 18.6819H281.047C280.367 18.6819 279.687 18.5685 279.12 18.4552C278.44 18.3418 277.873 18.1151 277.307 17.8884C276.74 17.6618 276.173 17.3217 275.606 16.9817C275.04 16.6416 274.586 16.1883 274.133 15.7349C273.68 15.2815 273.34 14.8281 272.886 14.2614C272.546 13.6947 272.206 13.1279 271.98 12.5612C271.753 11.9945 271.526 11.3144 271.413 10.7477C271.3 10.0676 271.186 9.50091 271.186 8.82084V1.11337L288.867 18.6819Z" fill="white" stroke="#BA181B" stroke-width="2" stroke-miterlimit="10" stroke-linecap="round" stroke-linejoin="round"/>
<path d="M446.299 184.611V272.904C446.299 278.344 441.879 282.764 436.438 282.764H373.534C368.093 282.764 363.673 278.344 363.673 272.904V184.611C363.673 179.171 368.093 174.751 373.534 174.751H436.438C441.879 174.751 446.299 179.171 446.299 184.611Z" fill="#F2F0F0" stroke="#BA181B" stroke-opacity="0.5" stroke-width="2.1719" stroke-miterlimit="10"/>
<path d="M131.436 184.611V272.904C131.436 278.344 127.016 282.764 121.575 282.764H58.6708C53.2304 282.764 48.8101 278.344 48.8101 272.904V184.611C48.8101 179.171 53.2304 174.751 58.6708 174.751H121.575C127.016 174.751 131.436 179.171 131.436 184.611Z" fill="white" fill-opacity="0.9" stroke="#BA181B" stroke-width="2.1719" stroke-miterlimit="10"/>
<path d="M140.163 175.884V264.176C140.163 269.617 135.743 274.037 130.303 274.037H67.3981C61.9577 274.037 57.5374 269.617 57.5374 264.176V175.884C57.5374 170.444 61.9577 166.024 67.3981 166.024H130.303C135.743 166.024 140.163 170.444 140.163 175.884Z" fill="white" stroke="#BA181B" stroke-width="2.1719" stroke-miterlimit="10"/>
<path d="M67.3981 185.291H98.907" stroke="#BA181B" stroke-width="1.0859" stroke-miterlimit="10" stroke-linecap="round"/>
<path d="M67.3981 194.019H130.303" stroke="#BA181B" stroke-width="1.0859" stroke-miterlimit="10" stroke-linecap="round"/>
<path d="M67.3981 202.746H130.303" stroke="#BA181B" stroke-width="1.0859" stroke-miterlimit="10" stroke-linecap="round"/>
<path d="M67.3981 211.36H130.303" stroke="#BA181B" stroke-width="1.0859" stroke-miterlimit="10" stroke-linecap="round"/>
<path d="M67.3981 220.087H130.303" stroke="#BA181B" stroke-width="1.0859" stroke-miterlimit="10" stroke-linecap="round"/>
<path d="M67.3981 228.701H130.303" stroke="#BA181B" stroke-width="1.0859" stroke-miterlimit="10" stroke-linecap="round"/>
<path d="M67.3981 237.428H130.303" stroke="#BA181B" stroke-width="1.0859" stroke-miterlimit="10" stroke-linecap="round"/>
<path d="M67.3981 246.155H130.303" stroke="#BA181B" stroke-width="1.0859" stroke-miterlimit="10" stroke-linecap="round"/>
<path d="M114.548 260.209H130.303" stroke="#BA181B" stroke-width="3.2578" stroke-miterlimit="10" stroke-linecap="round"/>
<path d="M437.572 175.884V264.176C437.572 269.617 433.151 274.037 427.711 274.037H364.806C359.366 274.037 354.946 269.617 354.946 264.176V175.884C354.946 170.444 359.366 166.024 364.806 166.024H427.711C433.151 166.024 437.572 170.444 437.572 175.884Z" fill="white" stroke="#BA181B" stroke-width="2.1719" stroke-miterlimit="10"/>
<rect x="348" y="213" width="57" height="24" rx="3" fill="white" stroke="#BA181B" stroke-width="2"/>
<path d="M369.72 230.176C368.451 230.176 367.373 229.936 366.488 229.456C365.613 228.976 364.947 228.304 364.488 227.44C364.029 226.576 363.8 225.563 363.8 224.4C363.8 223.504 363.933 222.699 364.2 221.984C364.477 221.259 364.872 220.645 365.384 220.144C365.907 219.632 366.536 219.237 367.272 218.96C368.019 218.683 368.861 218.544 369.8 218.544C370.376 218.544 370.952 218.608 371.528 218.736C372.104 218.864 372.659 219.077 373.192 219.376C373.416 219.504 373.565 219.669 373.64 219.872C373.725 220.064 373.747 220.272 373.704 220.496C373.672 220.709 373.587 220.901 373.448 221.072C373.32 221.232 373.149 221.339 372.936 221.392C372.733 221.435 372.499 221.392 372.232 221.264C371.88 221.072 371.507 220.933 371.112 220.848C370.717 220.752 370.285 220.704 369.816 220.704C369.059 220.704 368.424 220.848 367.912 221.136C367.4 221.413 367.016 221.829 366.76 222.384C366.515 222.928 366.392 223.6 366.392 224.4C366.392 225.605 366.68 226.517 367.256 227.136C367.843 227.755 368.707 228.064 369.848 228.064C370.232 228.064 370.627 228.027 371.032 227.952C371.437 227.877 371.837 227.771 372.232 227.632L371.768 228.64L371.768 225.568L370.328 225.568C370.008 225.568 369.763 225.488 369.592 225.328C369.421 225.168 369.336 224.949 369.336 224.672C369.336 224.384 369.421 224.165 369.592 224.016C369.763 223.856 370.008 223.776 370.328 223.776L372.84 223.776C373.16 223.776 373.4 223.861 373.56 224.032C373.731 224.203 373.816 224.448 373.816 224.768L373.816 228.48C373.816 228.757 373.763 228.992 373.656 229.184C373.549 229.376 373.368 229.515 373.112 229.6C372.632 229.771 372.093 229.909 371.496 230.016C370.899 230.123 370.307 230.176 369.72 230.176ZM378.219 230.144C377.814 230.144 377.504 230.032 377.291 229.808C377.078 229.584 376.971 229.269 376.971 228.864L376.971 219.856C376.971 219.451 377.078 219.136 377.291 218.912C377.504 218.688 377.814 218.576 378.219 218.576C378.614 218.576 378.918 218.688 379.131 218.912C379.344 219.136 379.451 219.451 379.451 219.856L379.451 228.864C379.451 229.269 379.344 229.584 379.131 229.808C378.928 230.032 378.624 230.144 378.219 230.144ZM383.945 230.144C383.54 230.144 383.225 230.032 383.001 229.808C382.788 229.584 382.681 229.259 382.681 228.832L382.681 220.016C382.681 219.6 382.793 219.28 383.017 219.056C383.241 218.832 383.561 218.72 383.977 218.72L389.449 218.72C389.769 218.72 390.009 218.805 390.169 218.976C390.34 219.136 390.425 219.371 390.425 219.68C390.425 220 390.34 220.245 390.169 220.416C390.009 220.576 389.769 220.656 389.449 220.656L385.161 220.656L385.161 223.408L389.097 223.408C389.417 223.408 389.662 223.493 389.833 223.664C390.004 223.824 390.089 224.059 390.089 224.368C390.089 224.677 390.004 224.917 389.833 225.088C389.662 225.259 389.417 225.344 389.097 225.344L385.161 225.344L385.161 228.832C385.161 229.707 384.756 230.144 383.945 230.144Z" fill="#BA181B"/>
<path d="M101.627 312.119V256.356C101.627 253.862 99.587 251.822 97.0935 251.822H92.6732H65.1312C63.4311 251.822 61.8443 251.142 60.8242 249.895L48.0167 235.275C47.1099 234.254 45.9765 233.801 44.6164 233.801H6.53366C4.04015 233.801 2 235.841 2 238.335V253.409V273.017V292.625V312.233C2 313.706 2.34002 315.066 2.79339 316.426C3.3601 317.673 4.15349 318.806 5.06022 319.826C6.08029 320.847 7.21371 321.527 8.46047 322.093C9.70722 322.66 11.1807 322.887 12.6541 322.887H37.4759H62.2977H87.1195H111.941C106.388 322.887 101.627 318.013 101.627 312.119Z" fill="#FFF8C4" stroke="#BA181B" stroke-opacity="0.5" stroke-width="2.1719" stroke-miterlimit="10"/>
<path d="M471.687 312.119V256.356C471.687 253.862 469.647 251.822 467.154 251.822H462.733H435.078C433.378 251.822 431.791 251.142 430.771 249.895L418.077 235.388C417.17 234.368 416.037 233.914 414.677 233.914H376.707C374.214 233.914 372.173 235.955 372.173 238.448V253.522V273.13V292.738V312.346C372.173 313.819 372.514 315.179 372.967 316.54C373.534 317.786 374.327 318.92 375.234 319.94C376.254 320.96 377.387 321.64 378.634 322.207C379.881 322.773 381.354 323 382.828 323H407.649H432.471H457.293H482.115C476.561 322.887 471.687 318.013 471.687 312.119Z" fill="#FFF8C4" stroke="#BA181B" stroke-opacity="0.5" stroke-width="2.1719" stroke-miterlimit="10"/>
<path d="M432.358 133.948L422.27 144.036L414.45 151.856L406.629 159.677L398.809 167.497L390.988 175.317L383.168 183.138L375.347 190.958C374.894 191.412 374.327 191.865 373.76 192.205C373.193 192.545 372.627 192.885 372.06 193.112C371.493 193.339 370.813 193.565 370.247 193.679C369.68 193.792 369 193.905 368.32 193.905C367.64 193.905 367.073 193.792 366.393 193.679C365.826 193.565 365.146 193.339 364.58 193.112C364.013 192.885 363.446 192.545 362.879 192.205C362.313 191.865 361.859 191.412 361.293 190.958L355.739 185.405L350.185 179.851L344.631 174.297L339.078 168.744L333.524 163.19L327.97 157.636L322.417 152.083L316.863 146.529C316.409 146.076 315.956 145.509 315.616 144.942C315.276 144.376 314.936 143.809 314.709 143.242C314.483 142.675 314.256 141.995 314.143 141.429C314.029 140.862 313.916 140.182 313.916 139.502C313.916 138.822 314.029 138.255 314.143 137.575C314.256 137.008 314.483 136.328 314.709 135.762C314.936 135.195 315.276 134.628 315.616 134.062C315.956 133.495 316.409 133.042 316.863 132.475L324.683 124.654L332.504 116.834L340.324 109.013L348.145 101.193L355.966 93.3724L363.786 85.5519L371.607 77.7314L379.427 69.9109C379.881 69.4576 380.447 69.0042 381.014 68.6642C381.581 68.3242 382.147 67.9841 382.714 67.7575C383.281 67.5308 383.961 67.3041 384.528 67.1908C385.094 67.0774 385.774 66.9641 386.454 66.9641C387.135 66.9641 387.701 67.0774 388.381 67.1908C388.948 67.3041 389.628 67.5308 390.195 67.7575C390.761 67.9841 391.328 68.3242 391.895 68.6642C392.462 69.0042 392.915 69.4576 393.482 69.9109L399.035 75.4646L404.589 81.0183L410.143 86.572L415.697 92.1257L421.25 97.6793L426.804 103.233L432.358 108.787V133.948Z" fill="white" stroke="#BA181B" stroke-width="2.1719" stroke-miterlimit="10" stroke-linecap="round" stroke-dasharray="10.16 10.16"/>
<path d="M432.358 133.948L426.804 128.395C426.351 127.941 425.897 127.375 425.557 126.808C425.217 126.241 424.877 125.674 424.651 125.108C424.424 124.541 424.197 123.861 424.084 123.294C423.97 122.728 423.857 122.048 423.857 121.367C423.857 120.687 423.97 120.121 424.084 119.441C424.197 118.874 424.424 118.194 424.651 117.627C424.877 117.061 425.217 116.494 425.557 115.927C425.897 115.36 426.351 114.907 426.804 114.34L432.358 108.787V133.948Z" fill="white" stroke="#BA181B" stroke-width="2.1719" stroke-miterlimit="10" stroke-linecap="round" stroke-linejoin="round"/>
<g clip-path="url(#clip0_17_104)">
<path d="M377.102 108.152C375.691 106.789 373.389 106.829 372.026 108.241L357.064 123.735C355.701 125.146 355.741 127.448 357.152 128.811L377.811 148.761C379.222 150.124 381.524 150.084 382.887 148.672L397.85 133.178C399.212 131.767 399.172 129.465 397.761 128.102L377.102 108.152ZM374.608 110.735L395.267 130.685L380.305 146.179L359.646 126.229L374.608 110.735ZM379.862 120.798C379.519 120.467 379.059 120.286 378.583 120.295C378.108 120.303 377.654 120.5 377.324 120.842C376.993 121.185 376.812 121.645 376.82 122.121C376.828 122.597 377.025 123.05 377.368 123.38C377.71 123.711 378.17 123.892 378.646 123.884C379.122 123.876 379.575 123.679 379.906 123.336C380.237 122.994 380.418 122.534 380.409 122.058C380.401 121.582 380.204 121.129 379.862 120.798ZM381.931 130.283L372.425 131.083L372.314 124.738L364.435 125.862L380.539 141.414L381.931 130.283Z" fill="#BA181B"/>
</g>
<path d="M129.623 75.578L139.71 85.6653L147.531 93.4858L155.351 101.306L163.172 109.127L170.992 116.947L178.813 124.768L186.633 132.588C187.087 133.042 187.54 133.608 187.88 134.175C188.22 134.742 188.56 135.308 188.787 135.875C189.014 136.442 189.24 137.122 189.354 137.689C189.467 138.255 189.58 138.935 189.58 139.615C189.58 140.295 189.467 140.862 189.354 141.542C189.24 142.109 189.014 142.789 188.787 143.356C188.56 143.922 188.22 144.489 187.88 145.056C187.54 145.622 187.087 146.076 186.633 146.642L181.08 152.196L175.526 157.75L169.859 163.19L164.305 168.744L158.751 174.297L153.198 179.851L147.644 185.405L142.09 190.958C141.637 191.412 141.07 191.865 140.503 192.205C139.937 192.545 139.37 192.885 138.803 193.112C138.237 193.339 137.556 193.565 136.99 193.679C136.423 193.792 135.743 193.905 135.063 193.905C134.383 193.905 133.816 193.792 133.136 193.679C132.569 193.565 131.889 193.339 131.323 193.112C130.756 192.885 130.189 192.545 129.623 192.205C129.056 191.865 128.603 191.412 128.036 190.958L120.215 183.138L112.395 175.318L104.574 167.497L96.7536 159.677L88.933 151.856L81.1124 144.036L73.2919 136.215L65.4713 128.395C65.0179 127.941 64.5646 127.375 64.2245 126.808C63.8845 126.241 63.5445 125.674 63.3178 125.108C63.0911 124.541 62.8644 123.861 62.7511 123.294C62.6378 122.728 62.5244 122.048 62.5244 121.367C62.5244 120.687 62.6378 120.121 62.7511 119.441C62.8644 118.874 63.0911 118.194 63.3178 117.627C63.5445 117.061 63.8845 116.494 64.2245 115.927C64.5646 115.36 65.0179 114.907 65.4713 114.34L71.025 108.787L76.5788 103.233L82.1325 97.6794L87.6862 92.1257L93.24 86.572L98.7937 81.0183L104.347 75.4646L129.623 75.578Z" fill="#BA181B" stroke="white" stroke-opacity="0.8" stroke-width="2.1719" stroke-miterlimit="10" stroke-linecap="round" stroke-dasharray="10.16 10.16"/>
<path d="M129.623 75.578L124.069 81.132C123.616 81.5853 123.049 82.0387 122.482 82.3788C121.915 82.7188 121.349 83.0588 120.782 83.2855C120.215 83.5122 119.535 83.7389 118.969 83.8522C118.402 83.9656 117.722 84.0789 117.042 84.0789C116.362 84.0789 115.795 83.9656 115.115 83.8522C114.548 83.7389 113.868 83.5122 113.301 83.2855C112.735 83.0588 112.168 82.7188 111.601 82.3788C111.035 82.0387 110.581 81.5853 110.015 81.132L104.461 75.578H129.623Z" fill="#BA181B" stroke="white" stroke-opacity="0.8" stroke-width="2.1719" stroke-miterlimit="10" stroke-linecap="round" stroke-linejoin="round"/>
<path d="M219.389 207.619H261.552" stroke="#BA181B" stroke-width="5.4297" stroke-miterlimit="10" stroke-linecap="round" stroke-linejoin="round"/>
<path d="M264.499 196.285L275.833 207.62L264.499 218.841" stroke="#BA181B" stroke-width="5.4297" stroke-miterlimit="10" stroke-linecap="round" stroke-linejoin="round"/>
<path d="M275.833 234.141H233.67" stroke="#161A1D" stroke-width="5.4297" stroke-miterlimit="10" stroke-linecap="round" stroke-linejoin="round"/>
<path d="M230.61 245.363L219.389 234.142L230.61 222.807" stroke="#161A1D" stroke-width="5.4297" stroke-miterlimit="10" stroke-linecap="round" stroke-linejoin="round"/>
<g clip-path="url(#clip1_17_104)">
<path d="M251.875 30C251.855 30.0078 251.832 30.0195 251.813 30.0313L223.813 35.3438C223.336 35.4336 222.992 35.8555 223 36.3438V73.6563C222.992 74.1445 223.336 74.5664 223.813 74.6563L251.813 79.9688C252.102 80.0234 252.402 79.9492 252.633 79.7617C252.859 79.5742 252.996 79.2969 253 79V74H270C271.094 74 272 73.0938 272 72V38C272 36.9063 271.094 36 270 36H253V31C253.004 30.7109 252.879 30.4375 252.664 30.2461C252.449 30.0547 252.16 29.9648 251.875 30ZM251 32.1875V36.5313C250.867 36.8086 250.867 37.1289 251 37.4063V72.8125C250.973 72.9453 250.973 73.0859 251 73.2188V77.8125L225 72.8438V37.1563L251 32.1875ZM253 38H270V72H253V67H257V65H253V59H257V57H253V52H257V50H253V45H257V43H253V38ZM259 43V45H267V43H259ZM229.688 45.6875L235.156 55.0313L229.188 64.375H234.188L237.438 58.3438C237.664 57.7617 237.813 57.3164 237.875 57.0313H237.906C238.035 57.6406 238.16 58.0547 238.281 58.2813L241.531 64.375H246.5L240.75 54.9375L246.344 45.6875H241.656L238.688 51.2188C238.402 51.9414 238.199 52.5117 238.094 52.875H238.063C237.898 52.2656 237.711 51.7227 237.5 51.2813L234.813 45.6875H229.688ZM259 50V52H267V50H259ZM259 57V59H267V57H259ZM259 65V67H267V65H259Z" fill="#BA181B"/>
</g>
<rect x="86.4142" y="161" width="97.5077" height="41.5524" rx="3" transform="rotate(-45 86.4142 161)" fill="#BA181B" stroke="white" stroke-width="2"/>
<path d="M125.702 163.414C125.272 163.844 124.825 164.054 124.361 164.042C123.898 164.031 123.451 163.81 123.021 163.381L113.602 153.962C113.161 153.521 112.94 153.074 112.94 152.621C112.952 152.157 113.172 151.71 113.602 151.281L117.726 147.157C119.061 145.822 120.43 145.132 121.833 145.086C123.224 145.03 124.52 145.601 125.719 146.8C126.918 148 127.495 149.301 127.45 150.704C127.405 152.106 126.715 153.475 125.38 154.81L122.546 157.644L125.651 160.75C126.081 161.18 126.302 161.627 126.313 162.091C126.336 162.543 126.132 162.985 125.702 163.414ZM120.509 155.608L122.902 153.215C123.581 152.536 123.943 151.869 123.988 151.213C124.045 150.545 123.779 149.917 123.191 149.329C122.602 148.741 121.98 148.48 121.324 148.548C120.679 148.605 120.017 148.973 119.338 149.651L116.945 152.044L120.509 155.608ZM137.888 150.923C137.447 151.364 136.989 151.585 136.513 151.585C136.038 151.585 135.58 151.364 135.139 150.923L125.924 141.708C125.483 141.267 125.262 140.809 125.262 140.333C125.262 139.858 125.483 139.4 125.924 138.959L129.233 135.65C131.281 133.602 133.38 132.544 135.529 132.476C137.679 132.386 139.71 133.296 141.622 135.208C142.583 136.17 143.29 137.171 143.743 138.212C144.195 139.23 144.405 140.266 144.371 141.318C144.337 142.37 144.06 143.428 143.539 144.491C143.008 145.543 142.227 146.584 141.197 147.614L137.888 150.923ZM136.989 147.512L138.889 145.611C139.534 144.966 140.015 144.327 140.332 143.694C140.649 143.06 140.807 142.426 140.807 141.793C140.807 141.159 140.649 140.526 140.332 139.892C140.004 139.247 139.517 138.602 138.872 137.958C137.583 136.668 136.304 136.034 135.037 136.057C133.77 136.057 132.503 136.69 131.236 137.958L129.335 139.858L136.989 147.512ZM152.167 136.949C151.737 137.379 151.285 137.594 150.81 137.594C150.346 137.583 149.888 137.351 149.435 136.898L140.084 127.548C139.643 127.106 139.422 126.648 139.422 126.173C139.422 125.698 139.643 125.24 140.084 124.798L145.888 118.994C146.228 118.655 146.573 118.491 146.923 118.502C147.274 118.491 147.614 118.649 147.942 118.977C148.281 119.317 148.451 119.668 148.451 120.03C148.451 120.369 148.281 120.708 147.942 121.048L143.394 125.596L146.313 128.515L150.487 124.34C150.827 124.001 151.177 123.831 151.539 123.831C151.89 123.82 152.23 123.978 152.558 124.306C152.886 124.634 153.05 124.979 153.05 125.341C153.05 125.703 152.88 126.054 152.541 126.394L148.366 130.568L152.066 134.268C152.993 135.196 153.027 136.089 152.167 136.949Z" fill="white"/>
<defs>
<clipPath id="clip0_17_104">
<rect width="43.0786" height="43.0786" fill="white" transform="translate(376.925 98) rotate(44)"/>
</clipPath>
<clipPath id="clip1_17_104">
<rect width="50" height="50" fill="white" transform="translate(223 30)"/>
</clipPath>
</defs>
</svg>
