<?xml version="1.0" encoding="iso-8859-1"?>
<!-- Uploaded to: SVG Repo, www.svgrepo.com, Generator: SVG Repo Mixer Tools -->
<svg height="800px" width="800px" version="1.1" id="Layer_1" xmlns="http://www.w3.org/2000/svg" xmlns:xlink="http://www.w3.org/1999/xlink" 
	 viewBox="0 0 512 512" xml:space="preserve">
<path style="fill:#fff; stroke:#BB1A1B;" d="M512,77.913v33.391H0V77.913c0-24.588,19.933-44.522,44.522-44.522h422.957
	C492.066,33.391,512,53.325,512,77.913z"/>


<path style="fill:#BB1A1B;" d="M397.913,66.226v1.113c0,4.61-3.738,8.348-8.348,8.348c-4.61,0-8.348-3.738-8.348-8.348v-1.113
	c0-4.61,3.738-8.348,8.348-8.348C394.175,57.878,397.913,61.616,397.913,66.226z M422.957,57.878c-4.61,0-8.348,3.738-8.348,8.348
	v1.113c0,4.61,3.738,8.348,8.348,8.348c4.61,0,8.348-3.738,8.348-8.348v-1.113C431.304,61.616,427.567,57.878,422.957,57.878z
	 M456.348,57.878c-4.61,0-8.348,3.738-8.348,8.348v1.113c0,4.61,3.738,8.348,8.348,8.348s8.348-3.738,8.348-8.348v-1.113
	C464.696,61.616,460.958,57.878,456.348,57.878z"/>


<path style="fill:#BB1A1B;" d="M512,100.174v311.652c0,24.588-19.933,44.522-44.522,44.522H44.522
	C19.933,456.348,0,436.414,0,411.826V100.174h66.783V22.261C66.783,9.966,76.749,0,89.043,0h89.043
	c12.295,0,22.261,9.966,22.261,22.261v77.913H512z"/>

<path style="fill:#BB1A1B;" d="M200.348,22.261v77.913H66.783V22.261C66.783,9.966,76.749,0,89.043,0h89.043
	C190.382,0,200.348,9.966,200.348,22.261z"/>

<path style="fill:#fff;" d="M178.087,38.957v22.261c0,6.147-4.983,11.13-11.13,11.13h-66.783c-6.147,0-11.13-4.983-11.13-11.13
	V38.957c0-6.147,4.983-11.13,11.13-11.13h66.783C173.104,27.826,178.087,32.809,178.087,38.957z"/>

<path style="fill:#fff;" d="M434.087,406.261H77.913c-12.295,0-22.261-9.966-22.261-22.261V261.565
	c0-12.295,9.966-22.261,22.261-22.261h356.174c12.295,0,22.261,9.966,22.261,22.261V384
	C456.348,396.295,446.382,406.261,434.087,406.261z M200.348,172.522L200.348,172.522c0-12.295-9.966-22.261-22.261-22.261H77.913
	c-12.295,0-22.261,9.966-22.261,22.261l0,0c0,12.295,9.966,22.261,22.261,22.261h100.174
	C190.382,194.783,200.348,184.816,200.348,172.522z M456.348,172.522L456.348,172.522c0-12.295-9.966-22.261-22.261-22.261H256
	c-12.295,0-22.261,9.966-22.261,22.261l0,0c0,12.295,9.966,22.261,22.261,22.261h178.087
	C446.382,194.783,456.348,184.816,456.348,172.522z"/>
</svg>