<svg width="16" height="16" viewBox="0 0 16 16" fill="none" xmlns="http://www.w3.org/2000/svg">
<path d="M15.9165 7.99999C15.9165 5.01593 13.4839 2.58333 10.4998 2.58332L5.55029 2.58332L6.9834 1.15022C7.04339 1.09196 7.09109 1.02226 7.12366 0.945236C7.15623 0.868214 7.17301 0.78544 7.17301 0.701814C7.17298 0.57743 7.13584 0.455884 7.06635 0.352726C6.99685 0.249568 6.89816 0.16949 6.78289 0.122738C6.66763 0.075986 6.54104 0.0646859 6.41932 0.0902835C6.2976 0.115881 6.18628 0.177212 6.09961 0.26643L3.65332 2.71272C3.57695 2.77129 3.51513 2.84671 3.47269 2.9331C3.43025 3.01949 3.40833 3.11451 3.40865 3.21076C3.40896 3.30701 3.4315 3.40188 3.47451 3.48799C3.51751 3.5741 3.57982 3.64911 3.65658 3.70718L6.09961 6.15022C6.1572 6.2102 6.22618 6.25809 6.30251 6.29108C6.37884 6.32407 6.46099 6.3415 6.54413 6.34234C6.62728 6.34319 6.70977 6.32743 6.78675 6.296C6.86374 6.26457 6.93368 6.21809 6.99248 6.1593C7.05127 6.1005 7.09775 6.03056 7.12918 5.95357C7.16061 5.87659 7.17637 5.79411 7.17552 5.71096C7.17467 5.62781 7.15725 5.54566 7.12426 5.46933C7.09127 5.393 7.04338 5.32402 6.9834 5.26643L5.55029 3.83332L10.4998 3.83332C12.8083 3.83332 14.6665 5.69155 14.6665 7.99999C14.6665 9.08151 14.2544 10.0571 13.5793 10.7995C13.5211 10.8596 13.4756 10.9309 13.4455 11.009C13.4154 11.087 13.4013 11.1704 13.404 11.254C13.4067 11.3377 13.4261 11.4199 13.4612 11.4959C13.4963 11.5719 13.5463 11.64 13.6082 11.6963C13.6701 11.7526 13.7427 11.7959 13.8217 11.8236C13.9006 11.8514 13.9843 11.8629 14.0679 11.8577C14.1514 11.8525 14.233 11.8305 14.3079 11.7931C14.3827 11.7558 14.4494 11.7037 14.5037 11.6401C15.3769 10.68 15.9165 9.40097 15.9165 7.99999ZM12.5921 12.7819C12.5906 12.6866 12.5673 12.5929 12.524 12.508C12.4807 12.4231 12.4185 12.3492 12.3423 12.292L9.90006 9.84976C9.84247 9.78978 9.77349 9.74189 9.69716 9.7089C9.62083 9.67591 9.53869 9.65849 9.45554 9.65764C9.37239 9.6568 9.28991 9.67255 9.21292 9.70398C9.13594 9.73541 9.066 9.78189 9.0072 9.84069C8.9484 9.89948 8.90192 9.96942 8.87049 10.0464C8.83906 10.1234 8.82331 10.2059 8.82415 10.289C8.825 10.3722 8.84243 10.4543 8.87542 10.5307C8.90841 10.607 8.95629 10.676 9.01628 10.7336L10.4494 12.1667L5.49984 12.1667C3.19139 12.1667 1.33317 10.3084 1.33317 7.99999C1.33317 6.91847 1.74523 5.94292 2.42041 5.20051C2.47857 5.14034 2.52405 5.0691 2.55416 4.99102C2.58427 4.91294 2.5984 4.82961 2.5957 4.74597C2.593 4.66233 2.57354 4.58008 2.53846 4.5041C2.50338 4.42812 2.4534 4.35996 2.39148 4.30366C2.32957 4.24736 2.25698 4.20407 2.17802 4.17635C2.09906 4.14863 2.01534 4.13704 1.93182 4.14228C1.8483 4.14752 1.76668 4.16948 1.69181 4.20685C1.61693 4.24423 1.55032 4.29626 1.49593 4.35985C0.622775 5.31995 0.0831706 6.59901 0.0831705 7.99999C0.0831704 10.984 2.51578 13.4167 5.49984 13.4167L10.4494 13.4167L9.01628 14.8498C8.95629 14.9074 8.90841 14.9763 8.87542 15.0527C8.84243 15.129 8.825 15.2111 8.82415 15.2943C8.82331 15.3774 8.83906 15.4599 8.87049 15.5369C8.90192 15.6139 8.9484 15.6838 9.0072 15.7426C9.066 15.8014 9.13594 15.8479 9.21292 15.8793C9.28991 15.9108 9.37239 15.9265 9.45554 15.9257C9.53869 15.9248 9.62083 15.9074 9.69716 15.8744C9.77349 15.8414 9.84247 15.7935 9.90006 15.7336L12.3464 13.2873C12.4239 13.2281 12.4866 13.1515 12.5292 13.0638C12.5719 12.976 12.5934 12.8795 12.5921 12.7819Z" fill="white"/>
</svg>
