<svg width="24" height="24" viewBox="0 0 24 24" fill="none" xmlns="http://www.w3.org/2000/svg">
<path d="M19.9125 13.6688C19.6875 13.4437 19.3313 13.4437 19.125 13.6688C18.9 13.8938 18.9 14.25 19.125 14.4562L21.9 17.25H6.75C6.43125 17.25 6.1875 17.4937 6.1875 17.8125C6.1875 18.1312 6.43125 18.375 6.75 18.375H21.9L19.1063 21.1688C18.8813 21.3938 18.8813 21.75 19.1063 21.9562C19.2188 22.0687 19.3687 22.125 19.5 22.125C19.6313 22.125 19.7812 22.0687 19.8937 21.9562L23.6437 18.2062C23.8687 17.9812 23.8687 17.625 23.6437 17.4187L19.9125 13.6688Z" fill="#BA181B" stroke="#BA181B" stroke-width="0.3"/>
<path d="M19.1438 7.125C19.4625 7.125 19.7063 6.88125 19.7063 6.5625C19.7063 6.24375 19.4625 6 19.1438 6H17.2688C16.95 6 16.7063 6.24375 16.7063 6.5625C16.7063 6.88125 16.95 7.125 17.2688 7.125H19.1438Z" fill="#BA181B" stroke="#BA181B" stroke-width="0.3"/>
<path d="M4.10625 10.7062C4.21875 10.8187 4.36875 10.875 4.5 10.875C4.63125 10.875 4.78125 10.8187 4.89375 10.7062C5.11875 10.4812 5.11875 10.125 4.89375 9.91875L2.1 7.125H13.5C13.8188 7.125 14.0625 6.88125 14.0625 6.5625C14.0625 6.24375 13.8188 6 13.5 6H2.1L4.89375 3.20625C5.11875 2.98125 5.11875 2.625 4.89375 2.41875C4.66875 2.19375 4.3125 2.19375 4.10625 2.41875L0.35625 6.16875C0.13125 6.39375 0.13125 6.75 0.35625 6.95625L4.10625 10.7062Z" fill="#BA181B" stroke="#BA181B" stroke-width="0.3"/>
</svg>
