<svg width="48" height="48" viewBox="0 0 48 48" fill="none" xmlns="http://www.w3.org/2000/svg">
<circle opacity="0.1" cx="24" cy="24" r="24" fill="#BA181B"/>
<path d="M17.75 15C16.2401 15 15 16.2401 15 17.75V30.25C15 31.7599 16.2401 33 17.75 33H30.25C31.7599 33 33 31.7599 33 30.25V17.75C33 16.2401 31.7599 15 30.25 15H17.75ZM17.75 16.5H30.25C30.9491 16.5 31.5 17.0509 31.5 17.75V30.25C31.5 30.3163 31.49 30.3801 31.4805 30.4434L25.4072 24.5674C25.0179 24.1907 24.5087 24.0029 24 24.0029C23.4913 24.0029 22.983 24.1907 22.5938 24.5674L16.5195 30.4434C16.51 30.3801 16.5 30.3163 16.5 30.25V17.75C16.5 17.0509 17.0509 16.5 17.75 16.5ZM27.25 18.5C26.5625 18.5 25.9519 18.7848 25.5645 19.2207C25.177 19.6566 25 20.2083 25 20.75C25 21.2917 25.177 21.8434 25.5645 22.2793C25.9519 22.7152 26.5625 23 27.25 23C27.9375 23 28.5481 22.7152 28.9355 22.2793C29.323 21.8434 29.5 21.2917 29.5 20.75C29.5 20.2083 29.323 19.6566 28.9355 19.2207C28.5481 18.7848 27.9375 18.5 27.25 18.5ZM27.25 20C27.5625 20 27.7019 20.0902 27.8145 20.2168C27.927 20.3434 28 20.5417 28 20.75C28 20.9583 27.927 21.1566 27.8145 21.2832C27.7019 21.4098 27.5625 21.5 27.25 21.5C26.9375 21.5 26.7981 21.4098 26.6855 21.2832C26.573 21.1566 26.5 20.9583 26.5 20.75C26.5 20.5417 26.573 20.3434 26.6855 20.2168C26.7981 20.0902 26.9375 20 27.25 20ZM24.001 25.4941C24.1308 25.4941 24.2601 25.5447 24.3643 25.6455L30.4004 31.4854C30.3506 31.4912 30.3016 31.5 30.25 31.5H17.75C17.6984 31.5 17.6494 31.4912 17.5996 31.4854L23.6367 25.6455C23.7409 25.5447 23.8712 25.4941 24.001 25.4941Z" fill="#BA181B"/>
</svg>
