<svg width="100" height="100" viewBox="0 0 100 100" fill="none" xmlns="http://www.w3.org/2000/svg">
<path d="M0 50C0 22.3858 22.3858 0 50 0C77.6142 0 100 22.3858 100 50C100 77.6142 77.6142 100 50 100C22.3858 100 0 77.6142 0 50Z" fill="#BA181B" fill-opacity="0.07"/>
<path d="M49.9756 31.2276C49.5615 31.2341 49.167 31.4046 48.8786 31.7018C48.5902 31.999 48.4316 32.3984 48.4375 32.8125V55.0822L44.8547 51.4994C44.7091 51.3494 44.5348 51.2302 44.3423 51.1488C44.1497 51.0673 43.9428 51.0254 43.7337 51.0254C43.4228 51.0255 43.1189 51.1183 42.861 51.292C42.6031 51.4658 42.4029 51.7125 42.286 52.0007C42.1692 52.2888 42.1409 52.6053 42.2049 52.9096C42.2689 53.2139 42.4222 53.4922 42.6453 53.7089L48.8953 59.9589C49.1883 60.2518 49.5857 60.4164 50 60.4164C50.4143 60.4164 50.8117 60.2518 51.1047 59.9589L57.3547 53.7089C57.5047 53.5649 57.6244 53.3925 57.7069 53.2016C57.7894 53.0108 57.8329 52.8054 57.835 52.5976C57.8372 52.3897 57.7978 52.1835 57.7192 51.991C57.6406 51.7986 57.5244 51.6237 57.3774 51.4767C57.2304 51.3297 57.0556 51.2135 56.8631 51.135C56.6707 51.0564 56.4645 51.017 56.2566 51.0191C56.0487 51.0212 55.8433 51.0648 55.6525 51.1473C55.4617 51.2297 55.2892 51.3495 55.1453 51.4994L51.5625 55.0822V32.8125C51.5655 32.6034 51.5265 32.3958 51.4478 32.202C51.3691 32.0082 51.2522 31.8322 51.1043 31.6844C50.9563 31.5366 50.7801 31.42 50.5862 31.3416C50.3924 31.2631 50.1847 31.2243 49.9756 31.2276ZM36.9792 42.7083C33.8336 42.7083 31.25 45.2919 31.25 48.4375V63.0208C31.25 66.1664 33.8336 68.75 36.9792 68.75H63.0208C66.1664 68.75 68.75 66.1664 68.75 63.0208V48.4375C68.75 45.2919 66.1664 42.7083 63.0208 42.7083H56.7708C56.5638 42.7054 56.3582 42.7436 56.1661 42.8209C55.9739 42.8981 55.7991 43.0127 55.6516 43.1581C55.5042 43.3035 55.3871 43.4767 55.3072 43.6677C55.2272 43.8587 55.1861 44.0637 55.1861 44.2708C55.1861 44.4779 55.2272 44.6829 55.3072 44.8739C55.3871 45.065 55.5042 45.2382 55.6516 45.3836C55.7991 45.529 55.9739 45.6436 56.1661 45.7208C56.3582 45.798 56.5638 45.8362 56.7708 45.8333H63.0208C64.4773 45.8333 65.625 46.981 65.625 48.4375V63.0208C65.625 64.4773 64.4773 65.625 63.0208 65.625H36.9792C35.5227 65.625 34.375 64.4773 34.375 63.0208V48.4375C34.375 46.981 35.5227 45.8333 36.9792 45.8333H43.2292C43.4362 45.8362 43.6418 45.798 43.8339 45.7208C44.0261 45.6436 44.2009 45.529 44.3484 45.3836C44.4958 45.2382 44.6129 45.065 44.6928 44.8739C44.7728 44.6829 44.8139 44.4779 44.8139 44.2708C44.8139 44.0637 44.7728 43.8587 44.6928 43.6677C44.6129 43.4767 44.4958 43.3035 44.3484 43.1581C44.2009 43.0127 44.0261 42.8981 43.8339 42.8209C43.6418 42.7436 43.4362 42.7054 43.2292 42.7083H36.9792Z" fill="#BA181B"/>
</svg>
