<svg width="40" height="33" viewBox="0 0 40 33" fill="none" xmlns="http://www.w3.org/2000/svg">
<path d="M23.2 0.625C19.0281 0.625 15.4969 3.12188 13.8 6.65C12.8969 6.02812 11.85 5.575 10.675 5.575C7.69375 5.575 5.31562 7.93438 5.15 10.875C2.16875 11.95 0 14.7313 0 18.075C0 22.3375 3.4625 25.8 7.725 25.8H14.4C14.6875 25.8031 14.9563 25.6531 15.1031 25.4031C15.2469 25.1531 15.2469 24.8469 15.1031 24.5969C14.9563 24.3469 14.6875 24.1969 14.4 24.2H7.725C4.325 24.2 1.6 21.4719 1.6 18.075C1.6 15.2469 3.50625 12.8656 6.1 12.15C6.45312 12.0469 6.69062 11.7156 6.675 11.35C6.67188 11.2375 6.675 11.1813 6.675 11.175C6.675 8.95312 8.45312 7.175 10.675 7.175C11.7875 7.175 12.8 7.62188 13.525 8.35C13.7156 8.53438 13.9875 8.61562 14.2469 8.55938C14.5094 8.50312 14.725 8.32188 14.825 8.075C16.0844 4.675 19.3531 2.225 23.2 2.225C28.1375 2.225 32.125 6.21562 32.125 11.15C32.125 11.5156 32.0969 11.875 32.05 12.25C32.0219 12.475 32.0906 12.7 32.2375 12.8719C32.3844 13.0438 32.6 13.1438 32.825 13.15H32.875C35.9344 13.15 38.4 15.6156 38.4 18.675C38.4 21.7344 35.9344 24.2 32.875 24.2H25.6C25.3125 24.1969 25.0438 24.3469 24.8969 24.5969C24.7531 24.8469 24.7531 25.1531 24.8969 25.4031C25.0438 25.6531 25.3125 25.8031 25.6 25.8H32.875C36.8 25.8 40 22.6 40 18.675C40 15.0344 37.2062 12.1406 33.675 11.725C33.6875 11.5313 33.725 11.35 33.725 11.15C33.725 5.35 29 0.625 23.2 0.625ZM20 14.275L19.425 14.825L15.425 18.825C15.1063 19.1438 15.1063 19.6562 15.425 19.975C15.7438 20.2938 16.2563 20.2938 16.575 19.975L19.2 17.35V31.4C19.1969 31.6875 19.3469 31.9563 19.5969 32.1031C19.8469 32.2469 20.1531 32.2469 20.4031 32.1031C20.6531 31.9563 20.8031 31.6875 20.8 31.4V17.35L23.425 19.975C23.7438 20.2938 24.2563 20.2938 24.575 19.975C24.8938 19.6562 24.8938 19.1438 24.575 18.825L20.575 14.825L20 14.275Z" fill="#BA181B"/>
</svg>
