<svg width="100" height="100" viewBox="0 0 100 100" fill="none" xmlns="http://www.w3.org/2000/svg">
<path d="M0 50C0 22.3858 22.3858 0 50 0C77.6142 0 100 22.3858 100 50C100 77.6142 77.6142 100 50 100C22.3858 100 0 77.6142 0 50Z" fill="#BA181B" fill-opacity="0.07"/>
<path d="M38.0208 29.1667C35.4505 29.1667 33.3333 31.2839 33.3333 33.8542V66.1459C33.3333 68.7162 35.4505 70.8334 38.0208 70.8334H61.9792C64.5495 70.8334 66.6667 68.7162 66.6667 66.1459V44.2709C66.6666 43.8565 66.5019 43.4591 66.2089 43.1661L66.1926 43.1498L52.6672 29.6245C52.3743 29.3314 51.9769 29.1668 51.5625 29.1667H38.0208ZM38.0208 32.2917H50V41.1459C50 43.7162 52.1172 45.8334 54.6875 45.8334H63.5417V66.1459C63.5417 67.0276 62.8609 67.7084 61.9792 67.7084H38.0208C37.1391 67.7084 36.4583 67.0276 36.4583 66.1459V33.8542C36.4583 32.9724 37.1391 32.2917 38.0208 32.2917ZM53.125 34.5012L61.3322 42.7084H54.6875C53.8057 42.7084 53.125 42.0276 53.125 41.1459V34.5012ZM43.2292 51.0417C43.0221 51.0388 42.8166 51.077 42.6244 51.1542C42.4323 51.2314 42.2574 51.3461 42.11 51.4914C41.9625 51.6368 41.8454 51.8101 41.7655 52.0011C41.6856 52.1921 41.6444 52.3971 41.6444 52.6042C41.6444 52.8113 41.6856 53.0163 41.7655 53.2073C41.8454 53.3983 41.9625 53.5716 42.11 53.7169C42.2574 53.8623 42.4323 53.9769 42.6244 54.0542C42.8166 54.1314 43.0221 54.1696 43.2292 54.1667H56.7708C56.9779 54.1696 57.1835 54.1314 57.3756 54.0542C57.5677 53.9769 57.7426 53.8623 57.8901 53.7169C58.0375 53.5716 58.1546 53.3983 58.2345 53.2073C58.3144 53.0163 58.3556 52.8113 58.3556 52.6042C58.3556 52.3971 58.3144 52.1921 58.2345 52.0011C58.1546 51.8101 58.0375 51.6368 57.8901 51.4914C57.7426 51.3461 57.5677 51.2314 57.3756 51.1542C57.1835 51.077 56.9779 51.0388 56.7708 51.0417H43.2292ZM43.2292 58.3334C43.0221 58.3304 42.8166 58.3687 42.6244 58.4459C42.4323 58.5231 42.2574 58.6377 42.11 58.7831C41.9625 58.9285 41.8454 59.1017 41.7655 59.2927C41.6856 59.4838 41.6444 59.6888 41.6444 59.8959C41.6444 60.1029 41.6856 60.3079 41.7655 60.499C41.8454 60.69 41.9625 60.8632 42.11 61.0086C42.2574 61.154 42.4323 61.2686 42.6244 61.3458C42.8166 61.423 43.0221 61.4613 43.2292 61.4584H52.6042C52.8112 61.4613 53.0168 61.423 53.2089 61.3458C53.4011 61.2686 53.5759 61.154 53.7234 61.0086C53.8709 60.8632 53.9879 60.69 54.0679 60.499C54.1478 60.3079 54.1889 60.1029 54.1889 59.8959C54.1889 59.6888 54.1478 59.4838 54.0679 59.2927C53.9879 59.1017 53.8709 58.9285 53.7234 58.7831C53.5759 58.6377 53.4011 58.5231 53.2089 58.4459C53.0168 58.3687 52.8112 58.3304 52.6042 58.3334H43.2292Z" fill="#BA181B"/>
</svg>
