<?xml version="1.0" ?>
<svg fill="#BA181B" width="60px" height="60px" viewBox="0 0 32 32" style="fill-rule:evenodd;clip-rule:evenodd;stroke-linejoin:round;stroke-miterlimit:2;" version="1.1" xml:space="preserve" xmlns="http://www.w3.org/2000/svg" xmlns:serif="http://www.serif.com/" xmlns:xlink="http://www.w3.org/1999/xlink"><path d="M17,1l-7,-0c-1.326,0 -2.598,0.527 -3.536,1.464c-0.937,0.938 -1.464,2.21 -1.464,3.536c0,5.322 0,14.678 0,20c-0,1.326 0.527,2.598 1.464,3.536c0.938,0.937 2.21,1.464 3.536,1.464c3.486,-0 8.514,0 12,0c1.326,0 2.598,-0.527 3.536,-1.464c0.937,-0.938 1.464,-2.21 1.464,-3.536l-0,-15l-5,0c-1.326,0 -2.598,-0.527 -3.536,-1.464c-0.937,-0.938 -1.464,-2.21 -1.464,-3.536l0,-5Zm-6,25l5,0c0.552,0 1,-0.448 1,-1c0,-0.552 -0.448,-1 -1,-1l-5,0c-0.552,0 -1,0.448 -1,1c0,0.552 0.448,1 1,1Zm0,-5l10,0c0.552,0 1,-0.448 1,-1c0,-0.552 -0.448,-1 -1,-1l-10,0c-0.552,0 -1,0.448 -1,1c0,0.552 0.448,1 1,1Zm0,-5l10,0c0.552,0 1,-0.448 1,-1c0,-0.552 -0.448,-1 -1,-1l-10,0c-0.552,0 -1,0.448 -1,1c0,0.552 0.448,1 1,1Zm8,-14.407l-0,4.407c-0,0.796 0.316,1.559 0.879,2.121c0.562,0.563 1.325,0.879 2.121,0.879l4.416,0l-7.416,-7.407Z"/><g id="Icon"/></svg>