<svg width="17" height="19" viewBox="0 0 17 19" fill="none" xmlns="http://www.w3.org/2000/svg">
<path d="M1.66668 0.333328C0.93001 0.333328 0.333344 0.929995 0.333344 1.66666V16.3333C0.333344 17.07 0.93001 17.6667 1.66668 17.6667H7.34506C6.7064 16.7133 6.33334 15.5673 6.33334 14.3333C6.33334 11.0193 9.01934 8.33333 12.3333 8.33333C12.792 8.33333 13.2373 8.38897 13.6667 8.48697V5.33333C13.6667 5.15666 13.5967 4.98731 13.4714 4.86197L9.13803 0.528641C9.0127 0.403307 8.84334 0.333328 8.66668 0.333328H1.66668ZM8.33334 1.60286L12.3971 5.66666H9.00001C8.63201 5.66666 8.33334 5.36799 8.33334 4.99999V1.60286ZM12.3333 9.66666C9.75601 9.66666 7.66668 11.756 7.66668 14.3333C7.66668 16.9107 9.75601 19 12.3333 19C14.9107 19 17 16.9107 17 14.3333C17 11.756 14.9107 9.66666 12.3333 9.66666ZM12.3333 11.6667C12.7013 11.6667 13 11.9647 13 12.3333V13.6667H14.3333C14.7013 13.6667 15 13.9647 15 14.3333C15 14.702 14.7013 15 14.3333 15H13V16.3333C13 16.702 12.7013 17 12.3333 17C11.9653 17 11.6667 16.702 11.6667 16.3333V15H10.3333C9.96534 15 9.66668 14.702 9.66668 14.3333C9.66668 13.9647 9.96534 13.6667 10.3333 13.6667H11.6667V12.3333C11.6667 11.9647 11.9653 11.6667 12.3333 11.6667Z" fill="white"/>
</svg>
