<svg width="100" height="100" viewBox="0 0 100 100" fill="none" xmlns="http://www.w3.org/2000/svg">
<path d="M0 50C0 22.3858 22.3858 0 50 0C77.6142 0 100 22.3858 100 50C100 77.6142 77.6142 100 50 100C22.3858 100 0 77.6142 0 50Z" fill="#BA181B" fill-opacity="0.07"/>
<path d="M32.8125 35.4167C29.6669 35.4167 27.0833 38.0003 27.0833 41.1459V58.8542C27.0833 61.9998 29.6669 64.5834 32.8125 64.5834H49.4792C51.13 64.5834 52.5968 63.8487 53.6458 62.7177C54.6949 63.8487 56.1616 64.5834 57.8125 64.5834H67.1875C70.3331 64.5834 72.9167 61.9998 72.9167 58.8542V41.1459C72.9167 38.0003 70.3331 35.4167 67.1875 35.4167H57.8125C56.1616 35.4167 54.6949 36.1513 53.6458 37.2823C52.5968 36.1513 51.13 35.4167 49.4792 35.4167H32.8125ZM32.8125 38.5417H49.4792C50.9357 38.5417 52.0833 39.6894 52.0833 41.1459C52.0827 41.1981 52.0848 41.2504 52.0894 41.3025C52.0936 41.3544 52.1004 41.406 52.1098 41.4571C52.1195 41.5079 52.1317 41.5581 52.1464 41.6077C52.1609 41.658 52.1778 41.7076 52.1973 41.7562C52.2172 41.8048 52.2396 41.8523 52.2644 41.8986C52.3133 41.9903 52.3712 42.0768 52.4373 42.157C52.5697 42.3188 52.7331 42.4524 52.9179 42.5499C53.1028 42.6474 53.3054 42.7068 53.5136 42.7246C53.6172 42.7336 53.7215 42.7323 53.8249 42.7206C54.0325 42.6962 54.2331 42.6305 54.4149 42.5273C54.4603 42.5017 54.5045 42.4739 54.5471 42.4439C54.5901 42.4141 54.6315 42.3822 54.6712 42.3482C54.7103 42.3142 54.7476 42.2782 54.7831 42.2404C54.819 42.2021 54.853 42.1621 54.8848 42.1204C54.9161 42.0791 54.9453 42.0364 54.9723 41.9922C55.0552 41.8592 55.1176 41.7145 55.1575 41.5629C55.1709 41.5126 55.1817 41.4617 55.19 41.4103C55.198 41.3591 55.2034 41.3075 55.2063 41.2557C55.2083 41.2191 55.2089 41.1825 55.2083 41.1459C55.2083 39.6894 56.356 38.5417 57.8125 38.5417H67.1875C68.644 38.5417 69.7917 39.6894 69.7917 41.1459V58.8542C69.7917 60.3107 68.644 61.4584 67.1875 61.4584H57.8125C56.356 61.4584 55.2083 60.3107 55.2083 58.8542C55.2089 58.8019 55.2069 58.7496 55.2022 58.6975C55.198 58.6457 55.1912 58.5941 55.1819 58.5429C55.1628 58.4405 55.1335 58.3404 55.0944 58.2438C55.055 58.1469 55.0059 58.0542 54.9479 57.9671C54.8614 57.8368 54.7558 57.7202 54.6346 57.6213C54.5941 57.5887 54.552 57.5581 54.5085 57.5297C54.4651 57.5011 54.4202 57.4746 54.3742 57.4504C54.3279 57.4256 54.2803 57.4032 54.2318 57.3832C54.0868 57.3248 53.9339 57.2885 53.7781 57.2754C53.5699 57.2577 53.3603 57.2819 53.1616 57.3466C53.1119 57.3625 53.063 57.3808 53.0151 57.4016C52.92 57.4439 52.8294 57.4957 52.7445 57.5562C52.4872 57.7379 52.2907 57.9932 52.181 58.2886C52.1629 58.3373 52.1473 58.3869 52.1342 58.4371C52.1077 58.5376 52.0914 58.6406 52.0854 58.7443C52.0834 58.7809 52.0827 58.8176 52.0833 58.8542C52.0833 60.3107 50.9357 61.4584 49.4792 61.4584H32.8125C31.356 61.4584 30.2083 60.3107 30.2083 58.8542V41.1459C30.2083 39.6894 31.356 38.5417 32.8125 38.5417ZM60.4167 41.6667C59.2656 41.6667 58.3333 42.599 58.3333 43.75V45.8334C58.3333 46.9844 59.2656 47.9167 60.4167 47.9167H64.5833C65.7344 47.9167 66.6667 46.9844 66.6667 45.8334V43.75C66.6667 42.599 65.7344 41.6667 64.5833 41.6667H60.4167ZM34.8958 42.7084C34.6888 42.7054 34.4832 42.7437 34.2911 42.8209C34.0989 42.8981 33.9241 43.0127 33.7766 43.1581C33.6292 43.3035 33.5121 43.4767 33.4322 43.6677C33.3522 43.8588 33.3111 44.0638 33.3111 44.2709C33.3111 44.4779 33.3522 44.6829 33.4322 44.874C33.5121 45.065 33.6292 45.2382 33.7766 45.3836C33.9241 45.529 34.0989 45.6436 34.2911 45.7208C34.4832 45.798 34.6888 45.8363 34.8958 45.8334H47.3958C47.6029 45.8363 47.8085 45.798 48.0006 45.7208C48.1927 45.6436 48.3676 45.529 48.5151 45.3836C48.6625 45.2382 48.7796 45.065 48.8595 44.874C48.9394 44.6829 48.9806 44.4779 48.9806 44.2709C48.9806 44.0638 48.9394 43.8588 48.8595 43.6677C48.7796 43.4767 48.6625 43.3035 48.5151 43.1581C48.3676 43.0127 48.1927 42.8981 48.0006 42.8209C47.8085 42.7437 47.6029 42.7054 47.3958 42.7084H34.8958ZM53.6214 44.7693C53.2074 44.7758 52.8128 44.9463 52.5244 45.2435C52.236 45.5407 52.0774 45.9401 52.0833 46.3542V47.3959C52.0804 47.6029 52.1187 47.8085 52.1959 48.0006C52.2731 48.1927 52.3877 48.3676 52.5331 48.5151C52.6785 48.6625 52.8517 48.7796 53.0427 48.8595C53.2338 48.9395 53.4388 48.9806 53.6458 48.9806C53.8529 48.9806 54.0579 48.9395 54.2489 48.8595C54.44 48.7796 54.6132 48.6625 54.7586 48.5151C54.904 48.3676 55.0186 48.1927 55.0958 48.0006C55.173 47.8085 55.2113 47.6029 55.2083 47.3959V46.3542C55.2113 46.1451 55.1723 45.9374 55.0936 45.7437C55.0149 45.5499 54.8981 45.3739 54.7501 45.2261C54.6021 45.0783 54.426 44.9617 54.2321 44.8832C54.0382 44.8048 53.8305 44.766 53.6214 44.7693ZM34.8958 48.9584C34.6888 48.9554 34.4832 48.9937 34.2911 49.0709C34.0989 49.1481 33.9241 49.2627 33.7766 49.4081C33.6292 49.5535 33.5121 49.7267 33.4322 49.9177C33.3522 50.1088 33.3111 50.3138 33.3111 50.5209C33.3111 50.7279 33.3522 50.9329 33.4322 51.124C33.5121 51.315 33.6292 51.4882 33.7766 51.6336C33.9241 51.779 34.0989 51.8936 34.2911 51.9708C34.4832 52.048 34.6888 52.0863 34.8958 52.0834H44.2708C44.4779 52.0863 44.6835 52.048 44.8756 51.9708C45.0677 51.8936 45.2426 51.779 45.3901 51.6336C45.5375 51.4882 45.6546 51.315 45.7345 51.124C45.8144 50.9329 45.8556 50.7279 45.8556 50.5209C45.8556 50.3138 45.8144 50.1088 45.7345 49.9177C45.6546 49.7267 45.5375 49.5535 45.3901 49.4081C45.2426 49.2627 45.0677 49.1481 44.8756 49.0709C44.6835 48.9937 44.4779 48.9554 44.2708 48.9584H34.8958ZM59.8958 50C59.6888 49.9971 59.4832 50.0353 59.2911 50.1126C59.0989 50.1898 58.9241 50.3044 58.7766 50.4498C58.6292 50.5952 58.5121 50.7684 58.4322 50.9594C58.3522 51.1504 58.3111 51.3554 58.3111 51.5625C58.3111 51.7696 58.3522 51.9746 58.4322 52.1656C58.5121 52.3566 58.6292 52.5299 58.7766 52.6753C58.9241 52.8207 59.0989 52.9353 59.2911 53.0125C59.4832 53.0897 59.6888 53.1279 59.8958 53.125H65.1042C65.3112 53.1279 65.5168 53.0897 65.7089 53.0125C65.9011 52.9353 66.0759 52.8207 66.2234 52.6753C66.3708 52.5299 66.4879 52.3566 66.5678 52.1656C66.6478 51.9746 66.6889 51.7696 66.6889 51.5625C66.6889 51.3554 66.6478 51.1504 66.5678 50.9594C66.4879 50.7684 66.3708 50.5952 66.2234 50.4498C66.0759 50.3044 65.9011 50.1898 65.7089 50.1126C65.5168 50.0353 65.3112 49.9971 65.1042 50H59.8958ZM53.6214 51.0193C53.2074 51.0258 52.8128 51.1963 52.5244 51.4935C52.236 51.7907 52.0774 52.1901 52.0833 52.6042V53.6459C52.0804 53.8529 52.1187 54.0585 52.1959 54.2506C52.2731 54.4427 52.3877 54.6176 52.5331 54.7651C52.6785 54.9125 52.8517 55.0296 53.0427 55.1095C53.2338 55.1895 53.4388 55.2306 53.6458 55.2306C53.8529 55.2306 54.0579 55.1895 54.2489 55.1095C54.44 55.0296 54.6132 54.9125 54.7586 54.7651C54.904 54.6176 55.0186 54.4427 55.0958 54.2506C55.173 54.0585 55.2113 53.8529 55.2083 53.6459V52.6042C55.2113 52.3951 55.1723 52.1874 55.0936 51.9937C55.0149 51.7999 54.8981 51.6239 54.7501 51.4761C54.6021 51.3283 54.426 51.2117 54.2321 51.1332C54.0382 51.0548 53.8305 51.016 53.6214 51.0193ZM59.8958 55.2084C59.6888 55.2054 59.4832 55.2437 59.2911 55.3209C59.0989 55.3981 58.9241 55.5127 58.7766 55.6581C58.6292 55.8035 58.5121 55.9767 58.4322 56.1677C58.3522 56.3588 58.3111 56.5638 58.3111 56.7709C58.3111 56.9779 58.3522 57.1829 58.4322 57.374C58.5121 57.565 58.6292 57.7382 58.7766 57.8836C58.9241 58.029 59.0989 58.1436 59.2911 58.2208C59.4832 58.298 59.6888 58.3363 59.8958 58.3334H65.1042C65.3112 58.3363 65.5168 58.298 65.7089 58.2208C65.9011 58.1436 66.0759 58.029 66.2234 57.8836C66.3708 57.7382 66.4879 57.565 66.5678 57.374C66.6478 57.1829 66.6889 56.9779 66.6889 56.7709C66.6889 56.5638 66.6478 56.3588 66.5678 56.1677C66.4879 55.9767 66.3708 55.8035 66.2234 55.6581C66.0759 55.5127 65.9011 55.3981 65.7089 55.3209C65.5168 55.2437 65.3112 55.2054 65.1042 55.2084H59.8958Z" fill="#BA181B"/>
</svg>
