<svg width="390" height="380" viewBox="0 0 390 380" fill="none" xmlns="http://www.w3.org/2000/svg">
<path d="M169 345C169 325.67 184.67 310 204 310V310C223.33 310 239 325.67 239 345V345C239 364.33 223.33 380 204 380V380C184.67 380 169 364.33 169 345V345Z" fill="#BA181B" fill-opacity="0.07"/>
<path d="M203.983 331.859C203.693 331.864 203.417 331.983 203.215 332.191C203.013 332.399 202.902 332.679 202.906 332.969V348.558L200.398 346.05C200.296 345.945 200.174 345.861 200.04 345.804C199.905 345.747 199.76 345.718 199.614 345.718C199.396 345.718 199.183 345.783 199.003 345.904C198.822 346.026 198.682 346.199 198.6 346.401C198.518 346.602 198.499 346.824 198.543 347.037C198.588 347.25 198.696 347.445 198.852 347.596L203.227 351.971C203.432 352.176 203.71 352.292 204 352.292C204.29 352.292 204.568 352.176 204.773 351.971L209.148 347.596C209.253 347.495 209.337 347.375 209.395 347.241C209.453 347.108 209.483 346.964 209.485 346.818C209.486 346.673 209.458 346.529 209.403 346.394C209.348 346.259 209.267 346.137 209.164 346.034C209.061 345.931 208.939 345.85 208.804 345.795C208.669 345.74 208.525 345.712 208.38 345.713C208.234 345.715 208.09 345.745 207.957 345.803C207.823 345.861 207.702 345.945 207.602 346.05L205.094 348.558V332.969C205.096 332.822 205.069 332.677 205.013 332.541C204.958 332.406 204.877 332.283 204.773 332.179C204.669 332.076 204.546 331.994 204.41 331.939C204.275 331.884 204.129 331.857 203.983 331.859ZM194.885 339.896C192.683 339.896 190.875 341.704 190.875 343.906V354.115C190.875 356.317 192.683 358.125 194.885 358.125H213.115C215.317 358.125 217.125 356.317 217.125 354.115V343.906C217.125 341.704 215.317 339.896 213.115 339.896H208.74C208.595 339.894 208.451 339.921 208.316 339.975C208.182 340.029 208.059 340.109 207.956 340.211C207.853 340.312 207.771 340.434 207.715 340.567C207.659 340.701 207.63 340.845 207.63 340.99C207.63 341.135 207.659 341.278 207.715 341.412C207.771 341.546 207.853 341.667 207.956 341.769C208.059 341.87 208.182 341.951 208.316 342.005C208.451 342.059 208.595 342.085 208.74 342.083H213.115C214.134 342.083 214.938 342.887 214.938 343.906V354.115C214.938 355.134 214.134 355.938 213.115 355.938H194.885C193.866 355.938 193.063 355.134 193.063 354.115V343.906C193.063 342.887 193.866 342.083 194.885 342.083H199.26C199.405 342.085 199.549 342.059 199.684 342.005C199.818 341.951 199.941 341.87 200.044 341.769C200.147 341.667 200.229 341.546 200.285 341.412C200.341 341.278 200.37 341.135 200.37 340.99C200.37 340.845 200.341 340.701 200.285 340.567C200.229 340.434 200.147 340.312 200.044 340.211C199.941 340.109 199.818 340.029 199.684 339.975C199.549 339.921 199.405 339.894 199.26 339.896H194.885Z" fill="#BA181B"/>
<path d="M169 35C169 15.67 184.67 0 204 0V0C223.33 0 239 15.67 239 35V35C239 54.33 223.33 70 204 70V70C184.67 70 169 54.33 169 35V35Z" fill="#BA181B" fill-opacity="0.07"/>
<path d="M195.615 20.4167C193.815 20.4167 192.333 21.8987 192.333 23.6979V46.3021C192.333 48.1013 193.815 49.5834 195.615 49.5834H212.385C214.185 49.5834 215.667 48.1013 215.667 46.3021V30.9896C215.667 30.6995 215.551 30.4214 215.346 30.2163L215.335 30.2049L205.867 20.7371C205.662 20.532 205.384 20.4167 205.094 20.4167H195.615ZM195.615 22.6042H204V28.8021C204 30.6013 205.482 32.0834 207.281 32.0834H213.479V46.3021C213.479 46.9193 213.003 47.3959 212.385 47.3959H195.615C194.997 47.3959 194.521 46.9193 194.521 46.3021V23.6979C194.521 23.0807 194.997 22.6042 195.615 22.6042ZM206.187 24.1508L211.932 29.8959H207.281C206.664 29.8959 206.187 29.4193 206.187 28.8021V24.1508ZM199.26 35.7292C199.115 35.7271 198.972 35.7539 198.837 35.808C198.703 35.862 198.58 35.9422 198.477 36.044C198.374 36.1458 198.292 36.267 198.236 36.4008C198.18 36.5345 198.151 36.678 198.151 36.8229C198.151 36.9679 198.18 37.1114 198.236 37.2451C198.292 37.3788 198.374 37.5001 198.477 37.6019C198.58 37.7036 198.703 37.7839 198.837 37.8379C198.972 37.892 199.115 37.9187 199.26 37.9167H208.74C208.884 37.9187 209.028 37.892 209.163 37.8379C209.297 37.7839 209.42 37.7036 209.523 37.6019C209.626 37.5001 209.708 37.3788 209.764 37.2451C209.82 37.1114 209.849 36.9679 209.849 36.8229C209.849 36.678 209.82 36.5345 209.764 36.4008C209.708 36.267 209.626 36.1458 209.523 36.044C209.42 35.9422 209.297 35.862 209.163 35.808C209.028 35.7539 208.884 35.7271 208.74 35.7292H199.26ZM199.26 40.8334C199.115 40.8313 198.972 40.8581 198.837 40.9121C198.703 40.9662 198.58 41.0464 198.477 41.1482C198.374 41.2499 198.292 41.3712 198.236 41.5049C198.18 41.6386 198.151 41.7822 198.151 41.9271C198.151 42.0721 198.18 42.2156 198.236 42.3493C198.292 42.483 198.374 42.6043 198.477 42.706C198.58 42.8078 198.703 42.888 198.837 42.9421C198.972 42.9961 199.115 43.0229 199.26 43.0209H205.823C205.968 43.0229 206.112 42.9961 206.246 42.9421C206.381 42.888 206.503 42.8078 206.606 42.706C206.71 42.6043 206.791 42.483 206.847 42.3493C206.903 42.2156 206.932 42.0721 206.932 41.9271C206.932 41.7822 206.903 41.6386 206.847 41.5049C206.791 41.3712 206.71 41.2499 206.606 41.1482C206.503 41.0464 206.381 40.9662 206.246 40.9121C206.112 40.8581 205.968 40.8313 205.823 40.8334H199.26Z" fill="#BA181B"/>
<path d="M0 195C0 175.67 15.67 160 35 160V160C54.33 160 70 175.67 70 195V195C70 214.33 54.33 230 35 230V230C15.67 230 0 214.33 0 195V195Z" fill="#BA181B" fill-opacity="0.07"/>
<path d="M320 195C320 175.67 335.67 160 355 160V160C374.33 160 390 175.67 390 195V195C390 214.33 374.33 230 355 230V230C335.67 230 320 214.33 320 195V195Z" fill="#BA181B" fill-opacity="0.07"/>
<path d="M342.969 184.792C340.767 184.792 338.958 186.6 338.958 188.802V201.198C338.958 203.4 340.767 205.208 342.969 205.208H354.635C355.791 205.208 356.818 204.694 357.552 203.902C358.286 204.694 359.313 205.208 360.469 205.208H367.031C369.233 205.208 371.042 203.4 371.042 201.198V188.802C371.042 186.6 369.233 184.792 367.031 184.792H360.469C359.313 184.792 358.286 185.306 357.552 186.098C356.818 185.306 355.791 184.792 354.635 184.792H342.969ZM342.969 186.979H354.635C355.655 186.979 356.458 187.783 356.458 188.802C356.458 188.839 356.459 188.875 356.463 188.912C356.465 188.948 356.47 188.984 356.477 189.02C356.484 189.055 356.492 189.091 356.502 189.125C356.513 189.161 356.524 189.195 356.538 189.229C356.552 189.263 356.568 189.297 356.585 189.329C356.619 189.393 356.66 189.454 356.706 189.51C356.799 189.623 356.913 189.717 357.042 189.785C357.172 189.853 357.314 189.895 357.459 189.907C357.532 189.913 357.605 189.913 357.677 189.904C357.823 189.887 357.963 189.841 358.09 189.769C358.122 189.751 358.153 189.732 358.183 189.711C358.213 189.69 358.242 189.667 358.27 189.644C358.297 189.62 358.323 189.595 358.348 189.568C358.373 189.541 358.397 189.513 358.419 189.484C358.441 189.455 358.462 189.425 358.481 189.394C358.539 189.301 358.582 189.2 358.61 189.094C358.62 189.059 358.627 189.023 358.633 188.987C358.639 188.951 358.642 188.915 358.644 188.879C358.646 188.853 358.646 188.828 358.646 188.802C358.646 187.783 359.449 186.979 360.469 186.979H367.031C368.051 186.979 368.854 187.783 368.854 188.802V201.198C368.854 202.217 368.051 203.021 367.031 203.021H360.469C359.449 203.021 358.646 202.217 358.646 201.198C358.646 201.161 358.645 201.125 358.641 201.088C358.639 201.052 358.634 201.016 358.627 200.98C358.614 200.908 358.593 200.838 358.566 200.771C358.538 200.703 358.504 200.638 358.463 200.577C358.403 200.486 358.329 200.404 358.244 200.335C358.216 200.312 358.186 200.291 358.156 200.271C358.125 200.251 358.094 200.232 358.062 200.215C358.029 200.198 357.996 200.182 357.962 200.168C357.861 200.127 357.754 200.102 357.645 200.093C357.499 200.08 357.352 200.097 357.213 200.143C357.178 200.154 357.144 200.167 357.111 200.181C357.044 200.211 356.98 200.247 356.921 200.289C356.741 200.416 356.603 200.595 356.527 200.802C356.514 200.836 356.503 200.871 356.494 200.906C356.475 200.976 356.464 201.048 356.46 201.121C356.458 201.147 356.458 201.172 356.458 201.198C356.458 202.217 355.655 203.021 354.635 203.021H342.969C341.949 203.021 341.146 202.217 341.146 201.198V188.802C341.146 187.783 341.949 186.979 342.969 186.979ZM362.292 189.167C361.486 189.167 360.833 189.819 360.833 190.625V192.083C360.833 192.889 361.486 193.542 362.292 193.542H365.208C366.014 193.542 366.667 192.889 366.667 192.083V190.625C366.667 189.819 366.014 189.167 365.208 189.167H362.292ZM344.427 189.896C344.282 189.894 344.138 189.921 344.004 189.975C343.869 190.029 343.747 190.109 343.644 190.211C343.54 190.312 343.458 190.434 343.402 190.567C343.346 190.701 343.318 190.845 343.318 190.99C343.318 191.134 343.346 191.278 343.402 191.412C343.458 191.545 343.54 191.667 343.644 191.768C343.747 191.87 343.869 191.95 344.004 192.005C344.138 192.059 344.282 192.085 344.427 192.083H353.177C353.322 192.085 353.466 192.059 353.6 192.005C353.735 191.95 353.857 191.87 353.96 191.768C354.064 191.667 354.146 191.545 354.202 191.412C354.258 191.278 354.286 191.134 354.286 190.99C354.286 190.845 354.258 190.701 354.202 190.567C354.146 190.434 354.064 190.312 353.96 190.211C353.857 190.109 353.735 190.029 353.6 189.975C353.466 189.921 353.322 189.894 353.177 189.896H344.427ZM357.535 191.338C357.245 191.343 356.969 191.462 356.767 191.67C356.565 191.878 356.454 192.158 356.458 192.448V193.177C356.456 193.322 356.483 193.466 356.537 193.6C356.591 193.735 356.671 193.857 356.773 193.96C356.875 194.064 356.996 194.146 357.13 194.202C357.264 194.258 357.407 194.286 357.552 194.286C357.697 194.286 357.84 194.258 357.974 194.202C358.108 194.146 358.229 194.064 358.331 193.96C358.433 193.857 358.513 193.735 358.567 193.6C358.621 193.466 358.648 193.322 358.646 193.177V192.448C358.648 192.301 358.621 192.156 358.565 192.021C358.51 191.885 358.429 191.762 358.325 191.658C358.221 191.555 358.098 191.473 357.962 191.418C357.827 191.363 357.681 191.336 357.535 191.338ZM344.427 194.271C344.282 194.269 344.138 194.296 344.004 194.35C343.869 194.404 343.747 194.484 343.644 194.586C343.54 194.687 343.458 194.809 343.402 194.942C343.346 195.076 343.318 195.22 343.318 195.365C343.318 195.509 343.346 195.653 343.402 195.787C343.458 195.92 343.54 196.042 343.644 196.143C343.747 196.245 343.869 196.325 344.004 196.38C344.138 196.434 344.282 196.46 344.427 196.458H350.99C351.134 196.46 351.278 196.434 351.413 196.38C351.547 196.325 351.67 196.245 351.773 196.143C351.876 196.042 351.958 195.92 352.014 195.787C352.07 195.653 352.099 195.509 352.099 195.365C352.099 195.22 352.07 195.076 352.014 194.942C351.958 194.809 351.876 194.687 351.773 194.586C351.67 194.484 351.547 194.404 351.413 194.35C351.278 194.296 351.134 194.269 350.99 194.271H344.427ZM361.927 195C361.782 194.998 361.638 195.025 361.504 195.079C361.369 195.133 361.247 195.213 361.144 195.315C361.04 195.417 360.958 195.538 360.902 195.672C360.846 195.805 360.818 195.949 360.818 196.094C360.818 196.239 360.846 196.382 360.902 196.516C360.958 196.65 361.04 196.771 361.144 196.873C361.247 196.974 361.369 197.055 361.504 197.109C361.638 197.163 361.782 197.19 361.927 197.187H365.573C365.718 197.19 365.862 197.163 365.996 197.109C366.131 197.055 366.253 196.974 366.356 196.873C366.46 196.771 366.541 196.65 366.597 196.516C366.653 196.382 366.682 196.239 366.682 196.094C366.682 195.949 366.653 195.805 366.597 195.672C366.541 195.538 366.46 195.417 366.356 195.315C366.253 195.213 366.131 195.133 365.996 195.079C365.862 195.025 365.718 194.998 365.573 195H361.927ZM357.535 195.713C357.245 195.718 356.969 195.837 356.767 196.045C356.565 196.253 356.454 196.533 356.458 196.823V197.552C356.456 197.697 356.483 197.841 356.537 197.975C356.591 198.11 356.671 198.232 356.773 198.335C356.875 198.439 356.996 198.521 357.13 198.577C357.264 198.633 357.407 198.661 357.552 198.661C357.697 198.661 357.84 198.633 357.974 198.577C358.108 198.521 358.229 198.439 358.331 198.335C358.433 198.232 358.513 198.11 358.567 197.975C358.621 197.841 358.648 197.697 358.646 197.552V196.823C358.648 196.676 358.621 196.531 358.565 196.396C358.51 196.26 358.429 196.137 358.325 196.033C358.221 195.93 358.098 195.848 357.962 195.793C357.827 195.738 357.681 195.711 357.535 195.713ZM361.927 198.646C361.782 198.644 361.638 198.671 361.504 198.725C361.369 198.779 361.247 198.859 361.144 198.961C361.04 199.062 360.958 199.184 360.902 199.317C360.846 199.451 360.818 199.595 360.818 199.74C360.818 199.884 360.846 200.028 360.902 200.162C360.958 200.295 361.04 200.417 361.144 200.518C361.247 200.62 361.369 200.7 361.504 200.755C361.638 200.809 361.782 200.835 361.927 200.833H365.573C365.718 200.835 365.862 200.809 365.996 200.755C366.131 200.7 366.253 200.62 366.356 200.518C366.46 200.417 366.541 200.295 366.597 200.162C366.653 200.028 366.682 199.884 366.682 199.74C366.682 199.595 366.653 199.451 366.597 199.317C366.541 199.184 366.46 199.062 366.356 198.961C366.253 198.859 366.131 198.779 365.996 198.725C365.862 198.671 365.718 198.644 365.573 198.646H361.927Z" fill="#BA181B"/>
<g clip-path="url(#clip0_301_47)">
<path d="M18.3672 200.715C18.0046 200.715 17.6568 200.571 17.4004 200.314C17.144 200.058 17 199.71 17 199.347V189.652C17.002 187.806 17.7365 186.035 19.0422 184.73C20.348 183.424 22.1183 182.69 23.9649 182.687H42.3386L40.3588 180.708C40.2319 180.581 40.1312 180.43 40.0624 180.264C39.9937 180.098 39.9584 179.921 39.9584 179.741C39.9584 179.378 40.1024 179.031 40.3588 178.774C40.6152 178.518 40.963 178.374 41.3256 178.374C41.6882 178.374 42.036 178.518 42.2924 178.774L46.6058 183.088C46.8622 183.344 47.0063 183.692 47.0063 184.055C47.0063 184.417 46.8622 184.765 46.6058 185.021L42.1642 189.463C42.0372 189.59 41.8865 189.691 41.7206 189.759C41.5547 189.828 41.377 189.863 41.1974 189.863C41.0179 189.863 40.8401 189.828 40.6742 189.759C40.5083 189.691 40.3576 189.59 40.2306 189.463C40.1037 189.336 40.003 189.185 39.9343 189.019C39.8655 188.854 39.8302 188.676 39.8302 188.496C39.8302 188.317 39.8655 188.139 39.9343 187.973C40.003 187.807 40.1037 187.656 40.2306 187.529L42.3386 185.422H23.9649C22.8433 185.423 21.768 185.869 20.9749 186.662C20.1817 187.455 19.7356 188.531 19.7344 189.652V199.347C19.7344 199.71 19.5903 200.058 19.3339 200.314C19.0775 200.571 18.7298 200.715 18.3672 200.715ZM50.6328 188.285C50.2702 188.285 49.9225 188.429 49.6661 188.686C49.4097 188.942 49.2656 189.29 49.2656 189.652V199.347C49.2644 200.469 48.8183 201.544 48.0251 202.338C47.232 203.131 46.1567 203.577 45.0351 203.578H26.6614L28.7692 201.47C28.8961 201.343 28.9968 201.193 29.0655 201.027C29.1342 200.861 29.1696 200.683 29.1696 200.504C29.1696 200.324 29.1342 200.146 29.0655 199.98C28.9968 199.815 28.8961 199.664 28.7692 199.537C28.6422 199.41 28.4915 199.309 28.3256 199.241C28.1597 199.172 27.9819 199.136 27.8024 199.136C27.6228 199.136 27.4451 199.172 27.2792 199.241C27.1133 199.309 26.9626 199.41 26.8356 199.537L22.394 203.978C22.267 204.105 22.1663 204.256 22.0976 204.422C22.0289 204.588 21.9935 204.766 21.9935 204.945C21.9935 205.125 22.0289 205.303 22.0976 205.468C22.1663 205.634 22.267 205.785 22.394 205.912L26.7074 210.225C26.9638 210.482 27.3116 210.626 27.6742 210.626C28.0368 210.626 28.3846 210.482 28.641 210.225C28.8974 209.969 29.0414 209.621 29.0414 209.259C29.0414 208.896 28.8974 208.548 28.641 208.292L26.6614 206.312H45.0351C46.8817 206.31 48.652 205.576 49.9578 204.27C51.2635 202.964 51.998 201.194 52 199.347V189.652C52 189.29 51.856 188.942 51.5996 188.686C51.3432 188.429 50.9954 188.285 50.6328 188.285Z" fill="#BA181B"/>
</g>
<path d="M257.965 33.1197C257.7 33.0432 257.423 33.1962 257.346 33.4615C257.27 33.7268 257.423 34.004 257.688 34.0805L257.965 33.1197ZM354.888 149.273L357.18 143.974L351.444 144.639L354.888 149.273ZM257.688 34.0805C258.607 34.3456 259.522 34.6185 260.432 34.8991L260.726 33.9435C259.81 33.6611 258.89 33.3865 257.965 33.1197L257.688 34.0805ZM265.871 36.6859C267.679 37.3173 269.468 37.9804 271.239 38.6754L271.604 37.7445C269.822 37.0449 268.021 36.3773 266.201 35.7419L265.871 36.6859ZM276.524 40.8703C278.276 41.6387 280.008 42.4398 281.718 43.2736L282.156 42.3747C280.434 41.5349 278.69 40.7282 276.926 39.9545L276.524 40.8703ZM286.81 45.8866C288.491 46.7942 290.151 47.7353 291.787 48.7097L292.298 47.8506C290.65 46.8688 288.979 45.9209 287.285 45.0066L286.81 45.8866ZM296.638 51.7426C298.234 52.789 299.806 53.8693 301.353 54.9836L301.937 54.1722C300.379 53.0493 298.795 51.9607 297.186 50.9063L296.638 51.7426ZM305.919 58.4296C307.415 59.6113 308.884 60.827 310.327 62.0767L310.981 61.3208C309.527 60.0612 308.046 58.836 306.539 57.6451L305.919 58.4296ZM314.565 65.9187C315.945 67.2284 317.298 68.5719 318.624 69.9492L319.344 69.2558C318.008 67.8675 316.644 66.5134 315.253 65.1932L314.565 65.9187ZM322.496 74.1603C323.124 74.8756 323.745 75.5991 324.359 76.331L325.125 75.6882C324.506 74.9505 323.88 74.2213 323.247 73.5004L322.496 74.1603ZM324.359 76.331C324.973 77.0628 325.578 77.8003 326.173 78.5432L326.954 77.9179C326.354 77.1691 325.744 76.4258 325.125 75.6882L324.359 76.331ZM329.648 83.0877C330.774 84.6321 331.862 86.1981 332.913 87.785L333.747 87.2331C332.688 85.6336 331.591 84.0552 330.456 82.4985L329.648 83.0877ZM335.96 92.6256C336.941 94.2635 337.883 95.9217 338.787 97.5994L339.667 97.1251C338.756 95.4342 337.806 93.7629 336.818 92.1121L335.96 92.6256ZM341.387 102.695C342.216 104.412 343.007 106.147 343.76 107.901L344.679 107.506C343.92 105.739 343.123 103.99 342.288 102.26L341.387 102.695ZM345.905 113.205C346.58 114.986 347.219 116.783 347.821 118.597L348.77 118.282C348.164 116.455 347.52 114.644 346.84 112.85L345.905 113.205ZM349.51 124.065C350.034 125.894 350.522 127.738 350.975 129.597L351.946 129.361C351.491 127.489 350.999 125.631 350.471 123.789L349.51 124.065ZM352.219 135.183C352.596 137.048 352.938 138.925 353.246 140.815L354.233 140.654C353.923 138.752 353.578 136.862 353.199 134.985L352.219 135.183ZM258.104 32.6393C257.573 32.4862 257.019 32.7922 256.866 33.3229C256.713 33.8535 257.019 34.4078 257.55 34.5609L258.104 32.6393ZM354.888 149.273L359.471 138.675L348.001 140.004L354.888 149.273ZM257.55 34.5609C258.466 34.8252 259.377 35.0972 260.285 35.3769L260.874 33.4656C259.955 33.1824 259.032 32.9069 258.104 32.6393L257.55 34.5609ZM265.706 37.158C267.508 37.7872 269.292 38.4482 271.056 39.1408L271.787 37.2791C269.999 36.5771 268.191 35.9074 266.366 35.2698L265.706 37.158ZM276.323 41.3282C278.069 42.0939 279.795 42.8922 281.499 43.723L282.376 41.9253C280.647 41.0825 278.897 40.273 277.127 39.4966L276.323 41.3282ZM286.572 46.3266C288.248 47.2309 289.901 48.1685 291.531 49.1393L292.554 47.421C290.9 46.4356 289.222 45.4842 287.522 44.5666L286.572 46.3266ZM296.364 52.1607C297.954 53.2032 299.52 54.2793 301.061 55.3893L302.23 53.7665C300.665 52.6393 299.075 51.5466 297.461 50.4881L296.364 52.1607ZM305.609 58.8219C307.099 59.999 308.562 61.2098 309.999 62.4546L311.309 60.9429C309.849 59.6783 308.362 58.4483 306.849 57.2528L305.609 58.8219ZM314.22 66.2814C315.595 67.5859 316.943 68.9241 318.263 70.2958L319.704 68.9091C318.363 67.5154 316.994 66.1559 315.597 64.8305L314.22 66.2814ZM322.12 74.4903C322.746 75.2027 323.365 75.9234 323.976 76.6524L325.508 75.3668C324.887 74.6263 324.258 73.8941 323.623 73.1704L322.12 74.4903ZM323.976 76.6524C324.588 77.3813 325.19 78.1159 325.783 78.8558L327.344 77.6053C326.742 76.8535 326.13 76.1073 325.508 75.3668L323.976 76.6524ZM329.244 83.3823C330.366 84.9206 331.45 86.4804 332.496 88.0609L334.164 86.9572C333.101 85.3514 332 83.7667 330.86 82.2039L329.244 83.3823ZM335.531 92.8823C336.508 94.5138 337.446 96.1655 338.346 97.8366L340.107 96.8879C339.192 95.1904 338.239 93.5126 337.247 91.8553L335.531 92.8823ZM340.937 102.912C341.763 104.622 342.551 106.351 343.301 108.098L345.139 107.309C344.377 105.535 343.577 103.78 342.738 102.043L340.937 102.912ZM345.437 113.383C346.11 115.156 346.747 116.947 347.346 118.754L349.244 118.124C348.636 116.291 347.99 114.473 347.307 112.673L345.437 113.383ZM349.029 124.202C349.552 126.025 350.038 127.863 350.489 129.715L352.432 129.242C351.975 127.364 351.482 125.5 350.952 123.651L349.029 124.202ZM351.729 135.283C352.104 137.14 352.445 139.011 352.752 140.895L354.726 140.574C354.415 138.665 354.07 136.769 353.689 134.886L351.729 135.283Z" fill="#BA181B"/>
<path d="M357.109 241.105C357.167 240.835 356.995 240.569 356.725 240.511C356.455 240.453 356.189 240.625 356.131 240.895L357.109 241.105ZM248 345.893L253.446 347.81L252.383 342.135L248 345.893ZM356.131 240.895C355.931 241.83 355.723 242.762 355.506 243.689L356.48 243.917C356.698 242.983 356.907 242.046 357.109 241.105L356.131 240.895ZM354.103 249.24C353.599 251.087 353.063 252.919 352.493 254.733L353.447 255.033C354.021 253.206 354.561 251.363 355.068 249.503L354.103 249.24ZM350.672 260.159C350.028 261.96 349.349 263.744 348.637 265.508L349.564 265.882C350.282 264.105 350.965 262.31 351.614 260.496L350.672 260.159ZM346.385 270.769C345.597 272.51 344.774 274.231 343.916 275.931L344.809 276.382C345.673 274.669 346.502 272.935 347.296 271.182L346.385 270.769ZM341.229 280.982C340.297 282.647 339.329 284.291 338.325 285.912L339.175 286.438C340.187 284.805 341.162 283.149 342.102 281.471L341.229 280.982ZM335.206 290.707C334.131 292.281 333.021 293.832 331.875 295.358L332.675 295.959C333.83 294.42 334.949 292.857 336.032 291.271L335.206 290.707ZM328.338 299.854C327.128 301.322 325.882 302.766 324.601 304.184L325.343 304.855C326.634 303.425 327.89 301.97 329.11 300.49L328.338 299.854ZM320.67 308.341C320 309.017 319.322 309.688 318.635 310.351L319.329 311.071C320.022 310.402 320.706 309.726 321.381 309.044L320.67 308.341ZM318.635 310.351C317.947 311.015 317.254 311.669 316.554 312.315L317.232 313.05C317.938 312.399 318.637 311.739 319.329 311.071L318.635 310.351ZM312.263 316.099C310.801 317.33 309.315 318.524 307.805 319.683L308.414 320.476C309.935 319.309 311.434 318.104 312.907 316.863L312.263 316.099ZM303.189 323.061C301.623 324.153 300.035 325.208 298.424 326.227L298.959 327.072C300.582 326.045 302.183 324.981 303.761 323.881L303.189 323.061ZM293.523 329.177C291.868 330.123 290.192 331.033 288.495 331.907L288.953 332.796C290.662 331.916 292.351 330.999 294.019 330.045L293.523 329.177ZM283.353 334.416C281.624 335.214 279.876 335.977 278.108 336.704L278.489 337.629C280.269 336.896 282.03 336.128 283.772 335.324L283.353 334.416ZM272.772 338.77C270.983 339.421 269.177 340.036 267.355 340.617L267.658 341.57C269.494 340.985 271.312 340.365 273.113 339.71L272.772 338.77ZM261.869 342.248C260.036 342.754 258.187 343.226 256.323 343.665L256.552 344.639C258.428 344.197 260.289 343.721 262.135 343.212L261.869 342.248ZM357.598 241.21C357.714 240.67 357.37 240.138 356.83 240.022C356.29 239.906 355.758 240.25 355.642 240.79L357.598 241.21ZM248 345.893L258.892 349.727L256.766 338.377L248 345.893ZM355.642 240.79C355.443 241.723 355.235 242.651 355.019 243.576L356.967 244.03C357.185 243.094 357.396 242.153 357.598 241.21L355.642 240.79ZM353.621 249.109C353.119 250.95 352.584 252.775 352.016 254.583L353.924 255.183C354.5 253.35 355.042 251.5 355.55 249.635L353.621 249.109ZM350.201 259.991C349.559 261.786 348.883 263.563 348.173 265.321L350.028 266.07C350.748 264.286 351.433 262.484 352.084 260.664L350.201 259.991ZM345.93 270.563C345.145 272.298 344.325 274.012 343.47 275.706L345.255 276.607C346.123 274.888 346.955 273.148 347.752 271.388L345.93 270.563ZM340.793 280.738C339.864 282.397 338.9 284.034 337.9 285.648L339.6 286.701C340.616 285.062 341.595 283.399 342.538 281.715L340.793 280.738ZM334.793 290.425C333.723 291.993 332.617 293.538 331.475 295.058L333.075 296.259C334.234 294.715 335.358 293.146 336.445 291.553L334.793 290.425ZM327.952 299.536C326.747 300.999 325.506 302.437 324.23 303.849L325.714 305.19C327.01 303.755 328.271 302.294 329.496 300.808L327.952 299.536ZM320.314 307.989C319.647 308.663 318.972 309.33 318.287 309.992L319.676 311.43C320.372 310.759 321.058 310.081 321.736 309.396L320.314 307.989ZM318.287 309.992C317.603 310.653 316.912 311.305 316.215 311.948L317.571 313.417C318.279 312.764 318.981 312.102 319.676 311.43L318.287 309.992ZM311.941 315.716C310.485 316.942 309.004 318.132 307.501 319.286L308.718 320.873C310.246 319.701 311.75 318.492 313.229 317.246L311.941 315.716ZM302.903 322.651C301.343 323.738 299.761 324.789 298.157 325.804L299.226 327.495C300.856 326.464 302.463 325.396 304.047 324.291L302.903 322.651ZM293.274 328.743C291.626 329.686 289.956 330.592 288.266 331.463L289.182 333.241C290.898 332.357 292.593 331.436 294.267 330.479L293.274 328.743ZM283.143 333.962C281.421 334.758 279.679 335.517 277.918 336.241L278.679 338.091C280.465 337.356 282.233 336.585 283.982 335.778L283.143 333.962ZM272.601 338.3C270.819 338.949 269.019 339.562 267.203 340.141L267.81 342.047C269.652 341.46 271.477 340.837 273.284 340.18L272.601 338.3ZM261.736 341.766C259.909 342.27 258.066 342.741 256.208 343.179L256.667 345.125C258.549 344.682 260.416 344.205 262.268 343.694L261.736 341.766Z" fill="#BA181B"/>
<path d="M147.619 347.537C147.889 347.595 148.155 347.423 148.213 347.153C148.271 346.883 148.099 346.617 147.829 346.559L147.619 347.537ZM42.8307 238.428L40.9141 243.874L46.5889 242.811L42.8307 238.428ZM147.829 346.559C146.894 346.359 145.962 346.15 145.035 345.934L144.808 346.908C145.741 347.126 146.678 347.335 147.619 347.537L147.829 346.559ZM139.484 344.531C137.637 344.027 135.805 343.491 133.991 342.921L133.691 343.875C135.518 344.449 137.361 344.989 139.221 345.496L139.484 344.531ZM128.565 341.1C126.764 340.456 124.981 339.777 123.216 339.065L122.842 339.992C124.619 340.71 126.415 341.393 128.228 342.042L128.565 341.1ZM117.955 336.813C116.214 336.025 114.493 335.202 112.793 334.344L112.343 335.237C114.055 336.101 115.789 336.93 117.542 337.724L117.955 336.813ZM107.742 331.657C106.077 330.725 104.433 329.757 102.813 328.753L102.286 329.603C103.919 330.615 105.575 331.59 107.253 332.53L107.742 331.657ZM98.0168 325.634C96.4428 324.559 94.8921 323.449 93.3656 322.303L92.7653 323.103C94.3038 324.258 95.8667 325.377 97.453 326.46L98.0168 325.634ZM88.8702 318.766C87.4017 317.556 85.958 316.31 84.5398 315.029L83.8694 315.771C85.2989 317.062 86.7541 318.318 88.2341 319.538L88.8702 318.766ZM80.3834 311.098C79.7068 310.428 79.0366 309.75 78.3729 309.062L77.6536 309.757C78.3225 310.45 78.998 311.134 79.68 311.809L80.3834 311.098ZM78.3729 309.062C77.7093 308.375 77.0546 307.682 76.409 306.982L75.6741 307.66C76.3249 308.366 76.9847 309.064 77.6536 309.757L78.3729 309.062ZM72.6256 302.691C71.3944 301.229 70.1998 299.743 69.0415 298.233L68.2481 298.842C69.4156 300.363 70.6197 301.862 71.8607 303.335L72.6256 302.691ZM65.6635 293.617C64.5715 292.051 63.5161 290.463 62.4972 288.852L61.6521 289.387C62.679 291.01 63.7427 292.611 64.8434 294.189L65.6635 293.617ZM59.5473 283.951C58.6009 282.296 57.6908 280.62 56.8169 278.923L55.9279 279.381C56.8084 281.09 57.7255 282.779 58.6793 284.447L59.5473 283.951ZM54.3078 273.781C53.5097 272.052 52.7472 270.303 52.0204 268.536L51.0955 268.917C51.8277 270.697 52.5958 272.458 53.3998 274.2L54.3078 273.781ZM49.9539 263.2C49.3034 261.411 48.6877 259.605 48.1067 257.783L47.1539 258.086C47.739 259.922 48.359 261.74 49.0141 263.541L49.9539 263.2ZM46.4762 252.297C45.9701 250.464 45.4977 248.615 45.0588 246.751L44.0854 246.98C44.5272 248.856 45.0027 250.717 45.5123 252.563L46.4762 252.297ZM147.515 348.026C148.055 348.142 148.586 347.798 148.702 347.258C148.818 346.718 148.474 346.186 147.934 346.07L147.515 348.026ZM42.8307 238.428L38.9976 249.32L50.3471 247.194L42.8307 238.428ZM147.934 346.07C147.002 345.871 146.073 345.663 145.148 345.447L144.694 347.395C145.631 347.613 146.571 347.824 147.515 348.026L147.934 346.07ZM139.616 344.049C137.774 343.547 135.949 343.012 134.141 342.444L133.542 344.352C135.374 344.928 137.224 345.47 139.089 345.978L139.616 344.049ZM128.734 340.629C126.938 339.987 125.161 339.311 123.403 338.601L122.654 340.456C124.438 341.176 126.24 341.861 128.06 342.512L128.734 340.629ZM118.161 336.358C116.427 335.573 114.712 334.753 113.018 333.898L112.117 335.683C113.836 336.551 115.576 337.383 117.336 338.18L118.161 336.358ZM107.986 331.221C106.327 330.292 104.69 329.328 103.076 328.328L102.023 330.028C103.662 331.044 105.325 332.023 107.009 332.966L107.986 331.221ZM98.2987 325.221C96.7308 324.151 95.1863 323.045 93.6658 321.903L92.4651 323.503C94.0096 324.662 95.5786 325.786 97.1712 326.873L98.2987 325.221ZM89.1882 318.38C87.7256 317.175 86.2876 315.934 84.875 314.658L83.5342 316.142C84.9693 317.438 86.4302 318.699 87.9161 319.924L89.1882 318.38ZM80.7351 310.742C80.0612 310.075 79.3936 309.4 78.7326 308.715L77.2939 310.104C77.9654 310.8 78.6436 311.486 79.3283 312.164L80.7351 310.742ZM78.7326 308.715C78.0716 308.031 77.4195 307.34 76.7764 306.643L75.3067 307.999C75.96 308.707 76.6224 309.409 77.2939 310.104L78.7326 308.715ZM73.0081 302.369C71.7818 300.913 70.5919 299.432 69.4382 297.929L67.8514 299.146C69.0235 300.674 70.2324 302.178 71.4782 303.657L73.0081 302.369ZM66.0736 293.331C64.9859 291.771 63.9346 290.189 62.9197 288.585L61.2295 289.654C62.2604 291.284 63.3283 292.891 64.4333 294.475L66.0736 293.331ZM59.9813 283.702C59.0385 282.054 58.1319 280.384 57.2614 278.694L55.4834 279.61C56.3672 281.326 57.2878 283.021 58.2452 284.695L59.9813 283.702ZM54.7617 273.571C53.9666 271.849 53.207 270.107 52.4828 268.346L50.6331 269.107C51.368 270.893 52.1388 272.661 52.9459 274.41L54.7617 273.571ZM50.4237 263.029C49.7756 261.247 49.1621 259.447 48.5831 257.631L46.6775 258.238C47.2646 260.08 47.8868 261.905 48.5442 263.712L50.4237 263.029ZM46.9582 252.164C46.4538 250.337 45.9829 248.494 45.5454 246.636L43.5987 247.095C44.0419 248.977 44.5191 250.844 45.0303 252.696L46.9582 252.164Z" fill="#BA181B"/>
<path d="M35.6128 139.619C35.555 139.889 35.7269 140.155 35.997 140.213C36.267 140.271 36.5328 140.099 36.5906 139.829L35.6128 139.619ZM144.722 34.8307L139.276 32.9141L140.339 38.5889L144.722 34.8307ZM36.5906 139.829C36.791 138.894 36.9994 137.962 37.2158 137.035L36.242 136.808C36.0242 137.741 35.8145 138.678 35.6128 139.619L36.5906 139.829ZM38.6189 131.484C39.1226 129.637 39.6593 127.805 40.229 125.991L39.275 125.691C38.7013 127.518 38.1611 129.361 37.6541 131.221L38.6189 131.484ZM42.05 120.565C42.6943 118.764 43.3726 116.981 44.0851 115.216L43.1578 114.842C42.4402 116.619 41.7572 118.415 41.1084 120.228L42.05 120.565ZM46.3366 109.955C47.1247 108.214 47.9477 106.493 48.8056 104.793L47.9129 104.342C47.0485 106.055 46.2194 107.789 45.4256 109.542L46.3366 109.955ZM51.4926 99.7419C52.4252 98.0767 53.3933 96.4333 54.3969 94.8125L53.5467 94.2861C52.5353 95.9194 51.5598 97.5754 50.6201 99.2532L51.4926 99.7419ZM57.516 90.0168C58.5905 88.4428 59.7007 86.8921 60.8467 85.3656L60.047 84.7653C58.8919 86.3038 57.773 87.8667 56.6901 89.453L57.516 90.0168ZM64.3837 80.8702C65.594 79.4017 66.8398 77.958 68.1213 76.5398L67.3793 75.8694C66.0876 77.2989 64.8319 78.7541 63.6121 80.2341L64.3837 80.8702ZM72.0521 72.3834C72.7217 71.7068 73.4002 71.0366 74.0874 70.3729L73.3928 69.6536C72.7001 70.3225 72.0163 70.998 71.3413 71.68L72.0521 72.3834ZM74.0874 70.3729C74.7747 69.7093 75.4681 69.0546 76.1677 68.409L75.4895 67.6741C74.7844 68.3249 74.0854 68.9847 73.3928 69.6536L74.0874 70.3729ZM80.4588 64.6256C81.9208 63.3944 83.4071 62.1998 84.9169 61.0415L84.3082 60.2481C82.7865 61.4156 81.2883 62.6197 79.8146 63.8607L80.4588 64.6256ZM89.5331 57.6635C91.0986 56.5715 92.6871 55.5161 94.2977 54.4972L93.7631 53.6521C92.1399 54.679 90.5389 55.7427 88.961 56.8433L89.5331 57.6635ZM99.1993 51.5473C100.854 50.6009 102.53 49.6908 104.227 48.8169L103.769 47.9278C102.06 48.8084 100.37 49.7255 98.7029 50.6793L99.1993 51.5473ZM109.369 46.3078C111.098 45.5096 112.846 44.7472 114.614 44.0204L114.233 43.0955C112.453 43.8277 110.692 44.5958 108.95 45.3998L109.369 46.3078ZM119.95 41.9538C121.739 41.3034 123.544 40.6877 125.367 40.1067L125.063 39.1539C123.228 39.739 121.409 40.359 119.609 41.0141L119.95 41.9538ZM130.853 38.4762C132.686 37.9701 134.535 37.4976 136.399 37.0587L136.17 36.0854C134.294 36.5271 132.433 37.0027 130.587 37.5123L130.853 38.4762ZM35.1239 139.515C35.0082 140.055 35.3522 140.586 35.8922 140.702C36.4322 140.818 36.9638 140.474 37.0795 139.934L35.1239 139.515ZM144.722 34.8307L133.83 30.9976L135.956 42.3471L144.722 34.8307ZM37.0795 139.934C37.2793 139.002 37.487 138.073 37.7027 137.148L35.755 136.694C35.5366 137.631 35.3262 138.571 35.1239 139.515L37.0795 139.934ZM39.1013 131.616C39.6033 129.774 40.1382 127.949 40.7061 126.141L38.7979 125.542C38.2224 127.374 37.6804 129.224 37.1717 131.089L39.1013 131.616ZM42.5208 120.734C43.1628 118.938 43.8388 117.161 44.5487 115.403L42.6942 114.654C41.9741 116.438 41.2886 118.24 40.6376 120.06L42.5208 120.734ZM46.7921 110.161C47.5773 108.427 48.3972 106.712 49.252 105.018L47.4665 104.117C46.5989 105.836 45.7668 107.576 44.9701 109.336L46.7921 110.161ZM51.9289 99.9862C52.8579 98.3273 53.8222 96.6903 54.822 95.0758L53.1216 94.0228C52.1063 95.6624 51.1271 97.3247 50.1839 99.0089L51.9289 99.9862ZM57.929 90.2987C58.9993 88.7308 60.1051 87.1863 61.2466 85.6658L59.6472 84.4651C58.4876 86.0096 57.3643 87.5786 56.2771 89.1711L57.929 90.2987ZM64.7696 81.1882C65.975 79.7256 67.2159 78.2876 68.4922 76.875L67.0083 75.5342C65.7116 76.9693 64.4509 78.4302 63.2262 79.9161L64.7696 81.1882ZM72.4075 72.7351C73.0745 72.0612 73.7502 71.3936 74.4347 70.7326L73.0454 69.2939C72.3501 69.9654 71.6636 70.6436 70.9859 71.3283L72.4075 72.7351ZM74.4347 70.7326C75.1193 70.0716 75.81 69.4195 76.5068 68.7764L75.1504 67.3067C74.4425 67.96 73.7408 68.6224 73.0454 69.2939L74.4347 70.7326ZM80.7808 65.0081C82.2371 63.7818 83.7175 62.5919 85.2212 61.4382L84.0039 59.8514C82.4761 61.0235 80.9721 62.2324 79.4926 63.4782L80.7808 65.0081ZM89.8192 58.0736C91.3785 56.9859 92.9607 55.9346 94.565 54.9197L93.4958 53.2295C91.8662 54.2604 90.259 55.3283 88.6749 56.4333L89.8192 58.0736ZM99.4476 51.9813C101.096 51.0385 102.766 50.1319 104.456 49.2614L103.54 47.4833C101.824 48.3672 100.129 49.2878 98.4546 50.2452L99.4476 51.9813ZM109.578 46.7617C111.301 45.9666 113.043 45.207 114.804 44.4828L114.043 42.6331C112.256 43.3679 110.489 44.1388 108.74 44.9459L109.578 46.7617ZM120.121 42.4237C121.903 41.7756 123.703 41.1621 125.519 40.583L124.912 38.6775C123.07 39.2646 121.245 39.8868 119.438 40.5442L120.121 42.4237ZM130.986 38.9582C132.813 38.4538 134.656 37.9829 136.514 37.5454L136.055 35.5987C134.173 36.0419 132.306 36.5191 130.454 37.0303L130.986 38.9582Z" fill="#BA181B"/>
<path d="M124.875 222.206C124.957 223.238 125.705 224.093 126.717 224.311L134.885 226.073C135.173 227.466 135.539 228.839 135.982 230.18L129.799 235.781C129.033 236.475 128.813 237.591 129.258 238.526C130.388 240.902 131.646 243.098 132.998 245.053C133.584 245.902 134.658 246.267 135.645 245.951L143.583 243.394C144.532 244.458 145.542 245.468 146.606 246.417L144.049 254.356C143.733 255.338 144.096 256.413 144.947 257.002C146.902 258.354 149.098 259.613 151.474 260.742C152.412 261.188 153.525 260.965 154.219 260.201L159.82 254.018C161.163 254.459 162.537 254.827 163.929 255.115L165.691 263.283C165.909 264.293 166.765 265.041 167.794 265.125C169.041 265.223 170.29 265.313 171.562 265.313C172.835 265.313 174.084 265.223 175.331 265.125C176.362 265.043 177.218 264.295 177.436 263.283L179.198 255.115C180.591 254.827 181.966 254.461 183.307 254.018L188.909 260.201C189.605 260.967 190.72 261.19 191.653 260.742C194.03 259.613 196.226 258.352 198.18 257.002C199.031 256.413 199.395 255.338 199.078 254.356L196.521 246.417C197.585 245.468 198.595 244.458 199.545 243.396L207.483 245.953C208.465 246.272 209.541 245.906 210.129 245.055C211.481 243.101 212.74 240.905 213.87 238.528C214.315 237.593 214.095 236.477 213.328 235.784L207.145 230.182C207.586 228.839 207.954 227.466 208.242 226.073L216.41 224.311C217.42 224.093 218.168 223.238 218.252 222.209C218.348 220.959 218.438 219.71 218.438 218.438C218.438 217.165 218.348 215.916 218.25 214.669C218.168 213.638 217.42 212.782 216.408 212.564L208.24 210.802C207.952 209.409 207.586 208.034 207.143 206.693L213.326 201.091C214.092 200.398 214.312 199.282 213.867 198.347C212.737 195.97 211.477 193.774 210.127 191.82C209.538 190.969 208.463 190.603 207.48 190.922L199.542 193.479C198.593 192.415 197.583 191.405 196.519 190.455L199.076 182.517C199.392 181.535 199.029 180.459 198.178 179.871C196.223 178.519 194.027 177.26 191.651 176.13C190.713 175.683 189.6 175.905 188.906 176.672L183.305 182.855C181.962 182.414 180.588 182.046 179.196 181.758L177.434 173.59C177.216 172.58 176.36 171.832 175.331 171.748C172.835 171.546 170.288 171.551 167.791 171.748C166.76 171.83 165.905 172.577 165.687 173.59L163.924 181.758C162.532 182.046 161.159 182.412 159.818 182.855L154.216 176.672C153.523 175.905 152.409 175.685 151.472 176.13C149.095 177.26 146.899 178.519 144.945 179.871C144.094 180.459 143.73 181.535 144.047 182.517L146.604 190.455C145.54 191.405 144.53 192.415 143.58 193.479L135.645 190.922C134.66 190.603 133.584 190.969 132.998 191.82C131.646 193.774 130.388 195.97 129.258 198.347C128.813 199.282 129.033 200.398 129.799 201.091L135.982 206.693C135.541 208.036 135.173 209.409 134.885 210.802L126.717 212.564C125.707 212.782 124.959 213.638 124.875 214.666C124.777 215.916 124.688 217.165 124.688 218.438C124.688 219.71 124.777 220.959 124.875 222.206ZM129.424 216.776L137.398 215.053C138.34 214.849 139.062 214.09 139.216 213.138C139.568 210.977 140.135 208.856 140.902 206.831C141.244 205.931 140.998 204.912 140.283 204.265L134.262 198.809C134.787 197.803 135.335 196.84 135.902 195.928L143.627 198.417C144.541 198.71 145.549 198.417 146.161 197.672C147.544 195.98 149.105 194.421 150.797 193.036C151.542 192.427 151.84 191.421 151.542 190.502L149.053 182.777C149.965 182.208 150.926 181.659 151.934 181.137L157.39 187.16C158.039 187.875 159.061 188.121 159.959 187.779C161.979 187.013 164.1 186.445 166.263 186.094C167.215 185.939 167.974 185.217 168.178 184.275L169.898 176.302C171.002 176.243 172.125 176.241 173.224 176.302L174.947 184.275C175.151 185.217 175.91 185.939 176.862 186.094C179.023 186.445 181.144 187.013 183.169 187.779C184.064 188.121 185.086 187.877 185.735 187.16L191.191 181.139C192.197 181.664 193.16 182.213 194.072 182.78L191.583 190.505C191.287 191.423 191.583 192.427 192.328 193.038C194.02 194.421 195.579 195.982 196.964 197.674C197.576 198.422 198.581 198.72 199.498 198.42L207.223 195.93C207.792 196.842 208.341 197.803 208.863 198.809L202.84 204.265C202.125 204.912 201.879 205.931 202.221 206.834C202.988 208.854 203.555 210.975 203.906 213.138C204.061 214.09 204.783 214.849 205.725 215.053L213.698 216.773C213.729 217.324 213.75 217.88 213.75 218.438C213.75 218.995 213.731 219.551 213.701 220.099L205.727 221.822C204.785 222.026 204.063 222.785 203.909 223.737C203.557 225.898 202.99 228.019 202.223 230.044C201.881 230.944 202.127 231.963 202.842 232.61L208.863 238.066C208.338 239.072 207.79 240.035 207.223 240.947L199.498 238.458C198.577 238.158 197.576 238.456 196.964 239.203C195.584 240.891 194.023 242.452 192.328 243.839C191.583 244.448 191.287 245.454 191.583 246.37L194.072 254.095C193.16 254.665 192.199 255.213 191.194 255.736L185.738 249.713C185.091 248.998 184.071 248.756 183.169 249.094C181.148 249.86 179.027 250.427 176.864 250.779C175.912 250.934 175.153 251.656 174.949 252.598L173.229 260.571C172.125 260.63 171.002 260.632 169.903 260.571L168.18 252.598C167.977 251.656 167.217 250.934 166.266 250.779C164.105 250.427 161.984 249.86 159.959 249.094C159.061 248.752 158.039 248.995 157.392 249.713L151.936 255.734C150.93 255.209 149.967 254.66 149.055 254.093L151.545 246.368C151.84 245.449 151.545 244.446 150.799 243.834C149.107 242.452 147.548 240.891 146.163 239.198C145.552 238.451 144.544 238.156 143.63 238.453L135.905 240.942C135.335 240.031 134.787 239.07 134.264 238.062L140.288 232.605C141.002 231.959 141.248 230.939 140.906 230.037C140.14 228.016 139.573 225.895 139.221 223.732C139.066 222.78 138.345 222.021 137.402 221.817L129.424 220.102C129.396 219.551 129.375 218.995 129.375 218.438C129.375 217.88 129.394 217.324 129.424 216.776Z" fill="#BA181B"/>
<path d="M247.076 158.051C247.957 157.774 248.595 157.003 248.7 156.084C248.841 154.901 248.906 153.83 248.906 152.813C248.906 151.795 248.841 150.724 248.702 149.541C248.597 148.622 247.959 147.851 247.078 147.574L240.579 145.533C240.384 145.001 240.169 144.478 239.932 143.967L243.082 137.932C243.509 137.114 243.415 136.12 242.843 135.394C241.486 133.678 239.925 132.117 238.205 130.756C237.478 130.181 236.484 130.09 235.666 130.514L229.627 133.664C229.116 133.43 228.593 133.214 228.061 133.02L226.02 126.52C225.743 125.639 224.972 125.002 224.053 124.896C221.681 124.62 219.879 124.62 217.507 124.896C216.588 125.002 215.817 125.639 215.541 126.52L213.499 133.02C212.967 133.214 212.445 133.43 211.934 133.666L205.898 130.516C205.08 130.092 204.089 130.184 203.36 130.756C201.645 132.113 200.084 133.673 198.722 135.394C198.148 136.12 198.054 137.112 198.48 137.932L201.628 143.967C201.394 144.478 201.178 145.001 200.984 145.533L194.484 147.574C193.603 147.851 192.966 148.622 192.86 149.541C192.722 150.724 192.656 151.795 192.656 152.813C192.656 153.83 192.722 154.901 192.86 156.084C192.966 157.003 193.603 157.774 194.484 158.051L200.984 160.092C201.178 160.624 201.394 161.147 201.63 161.658L198.48 167.693C198.054 168.511 198.148 169.505 198.72 170.231C200.077 171.947 201.638 173.508 203.358 174.87C204.082 175.444 205.078 175.535 205.896 175.111L211.931 171.963C212.442 172.198 212.965 172.413 213.497 172.608L215.538 179.107C215.815 179.988 216.586 180.626 217.505 180.731C218.693 180.872 219.764 180.938 220.781 180.938C221.798 180.938 222.87 180.872 224.053 180.734C224.972 180.628 225.743 179.991 226.02 179.109L228.061 172.61C228.593 172.416 229.116 172.2 229.627 171.963L235.662 175.113C236.48 175.54 237.473 175.448 238.2 174.874C239.916 173.517 241.477 171.956 242.838 170.236C243.412 169.509 243.506 168.518 243.08 167.698L239.93 161.663C240.166 161.152 240.382 160.629 240.577 160.097L247.076 158.051ZM238.029 155.979C237.288 156.213 236.712 156.797 236.487 157.542C236.168 158.602 235.746 159.621 235.235 160.575C234.867 161.259 234.86 162.082 235.221 162.769L238.195 168.469C237.64 169.085 237.052 169.673 236.438 170.227L230.738 167.252C230.048 166.891 229.226 166.901 228.544 167.266C227.59 167.777 226.57 168.199 225.511 168.518C224.768 168.741 224.182 169.32 223.948 170.06L222.016 176.21C221.161 176.262 220.404 176.262 219.546 176.21L217.615 170.06C217.38 169.32 216.797 168.743 216.052 168.518C214.99 168.199 213.97 167.777 213.021 167.266C212.337 166.898 211.514 166.891 210.825 167.252L205.125 170.227C204.509 169.671 203.92 169.083 203.367 168.469L206.341 162.769C206.7 162.082 206.695 161.257 206.327 160.575C205.816 159.621 205.395 158.602 205.076 157.542C204.853 156.799 204.274 156.213 203.534 155.979L197.384 154.048C197.355 153.619 197.344 153.209 197.344 152.813C197.344 152.416 197.355 152.006 197.384 151.577L203.534 149.646C204.274 149.412 204.851 148.828 205.076 148.083C205.395 147.021 205.816 146.002 206.327 145.052C206.695 144.368 206.702 143.545 206.341 142.856L203.367 137.156C203.923 136.54 204.511 135.952 205.125 135.398L210.825 138.373C211.512 138.731 212.337 138.724 213.019 138.359C213.973 137.848 214.992 137.426 216.052 137.107C216.795 136.884 217.38 136.306 217.615 135.565L219.546 129.415C220.402 129.363 221.159 129.363 222.016 129.415L223.948 135.565C224.182 136.306 224.766 136.882 225.511 137.107C226.573 137.426 227.592 137.848 228.541 138.359C229.226 138.727 230.048 138.734 230.738 138.373L236.438 135.398C237.054 135.954 237.642 136.542 238.195 137.156L235.221 142.856C234.862 143.543 234.867 144.368 235.235 145.05C235.746 146.004 236.168 147.023 236.487 148.083C236.709 148.826 237.288 149.412 238.029 149.646L244.179 151.577C244.207 152.006 244.219 152.416 244.219 152.813C244.219 153.209 244.207 153.619 244.179 154.048L238.029 155.979Z" fill="#BA181B"/>
<path d="M263.583 201.947L259.556 200.517C259.327 199.863 259.064 199.223 258.766 198.602L260.597 194.747C260.979 193.945 260.873 192.998 260.325 192.3C259.153 190.802 257.798 189.445 256.296 188.269C255.595 187.72 254.644 187.617 253.847 187.997L249.989 189.827C249.37 189.532 248.73 189.267 248.077 189.04L246.645 185.013C246.347 184.177 245.599 183.579 244.718 183.471C242.63 183.22 241.118 183.22 239.03 183.471C238.148 183.577 237.401 184.174 237.103 185.013L235.673 189.04C235.02 189.269 234.38 189.532 233.759 189.83L229.903 187.999C229.106 187.619 228.157 187.725 227.456 188.271C225.959 189.443 224.602 190.798 223.425 192.3C222.879 192.998 222.773 193.948 223.153 194.749L224.984 198.607C224.688 199.226 224.423 199.866 224.196 200.519L220.17 201.952C219.333 202.249 218.735 202.997 218.627 203.878C218.498 204.916 218.438 205.847 218.438 206.719C218.438 207.591 218.498 208.519 218.625 209.562C218.73 210.443 219.328 211.191 220.167 211.488L224.194 212.918C224.423 213.572 224.686 214.212 224.984 214.833L223.153 218.688C222.771 219.49 222.877 220.437 223.425 221.135C224.597 222.633 225.952 223.99 227.454 225.166C228.152 225.712 229.104 225.818 229.903 225.438L233.761 223.608C234.38 223.903 235.02 224.168 235.673 224.395L237.105 228.422C237.403 229.259 238.151 229.856 239.032 229.964C240.075 230.095 241.003 230.156 241.875 230.156C242.747 230.156 243.675 230.095 244.718 229.969C245.599 229.863 246.347 229.266 246.645 228.427L248.074 224.4C248.728 224.17 249.368 223.908 249.989 223.61L253.845 225.441C254.644 225.823 255.595 225.719 256.291 225.169C257.789 223.997 259.146 222.642 260.323 221.14C260.869 220.441 260.974 219.492 260.595 218.691L258.764 214.833C259.059 214.214 259.324 213.574 259.552 212.92L263.578 211.488C264.415 211.191 265.012 210.443 265.12 209.562C265.252 208.519 265.312 207.591 265.312 206.719C265.312 205.847 265.252 204.919 265.125 203.876C265.02 202.992 264.422 202.247 263.583 201.947ZM260.602 207.574L256.887 208.894C256.167 209.149 255.616 209.74 255.413 210.476C255.105 211.589 254.667 212.651 254.112 213.633C253.737 214.296 253.709 215.102 254.034 215.791L255.717 219.337C255.328 219.764 254.92 220.172 254.496 220.559L250.95 218.876C250.266 218.55 249.457 218.578 248.791 218.953C247.807 219.511 246.745 219.947 245.637 220.254C244.901 220.458 244.31 221.009 244.052 221.728L242.733 225.443C242.166 225.473 241.589 225.473 241.022 225.443L239.702 221.728C239.447 221.009 238.856 220.458 238.12 220.254C237.007 219.947 235.945 219.509 234.963 218.953C234.3 218.58 233.496 218.552 232.805 218.876L229.259 220.559C228.832 220.169 228.424 219.762 228.038 219.337L229.72 215.791C230.048 215.102 230.018 214.296 229.643 213.633C229.085 212.648 228.649 211.587 228.342 210.478C228.138 209.742 227.588 209.152 226.868 208.894L223.153 207.574C223.134 207.291 223.125 207.007 223.125 206.719C223.125 206.43 223.134 206.144 223.148 205.863L226.863 204.541C227.583 204.286 228.134 203.695 228.335 202.959C228.645 201.844 229.083 200.784 229.638 199.802C230.013 199.139 230.041 198.333 229.716 197.644L228.033 194.098C228.422 193.671 228.83 193.263 229.254 192.877L232.8 194.559C233.489 194.887 234.295 194.859 234.959 194.482C235.943 193.924 237.005 193.488 238.113 193.181C238.849 192.977 239.44 192.427 239.698 191.707L241.017 187.992C241.584 187.962 242.161 187.962 242.728 187.992L244.048 191.707C244.303 192.427 244.894 192.977 245.63 193.181C246.743 193.488 247.805 193.927 248.787 194.482C249.452 194.859 250.256 194.887 250.945 194.559L254.491 192.877C254.918 193.266 255.326 193.673 255.712 194.098L254.03 197.644C253.702 198.333 253.732 199.139 254.107 199.802C254.665 200.787 255.101 201.848 255.408 202.957C255.612 203.693 256.162 204.284 256.882 204.541L260.597 205.861C260.616 206.147 260.625 206.43 260.625 206.719C260.625 207.007 260.616 207.291 260.602 207.574Z" fill="#BA181B"/>
<path d="M171.562 244.219C185.777 244.219 197.344 232.652 197.344 218.438C197.344 204.223 185.777 192.656 171.562 192.656C157.348 192.656 145.781 204.223 145.781 218.438C145.781 232.652 157.348 244.219 171.562 244.219ZM171.562 197.344C183.192 197.344 192.656 206.808 192.656 218.438C192.656 230.067 183.192 239.531 171.562 239.531C159.933 239.531 150.469 230.067 150.469 218.438C150.469 206.808 159.933 197.344 171.562 197.344Z" fill="#BA181B"/>
<path d="M124.739 179.435L128.339 182.438C139.071 169.568 154.823 162.188 171.562 162.188C172.755 162.188 173.946 162.256 175.137 162.331L172.249 165.218L175.563 168.532L182.594 161.501C183.511 160.584 183.511 159.103 182.594 158.187L175.563 151.156L172.249 154.47L175.434 157.655C174.145 157.573 172.854 157.5 171.562 157.5C153.431 157.5 136.364 165.495 124.739 179.435Z" fill="#BA181B"/>
<path d="M220.781 141.094C214.32 141.094 209.062 146.351 209.062 152.812C209.062 159.274 214.32 164.531 220.781 164.531C227.243 164.531 232.5 159.274 232.5 152.812C232.5 146.351 227.243 141.094 220.781 141.094ZM220.781 159.844C216.905 159.844 213.75 156.689 213.75 152.812C213.75 148.936 216.905 145.781 220.781 145.781C224.658 145.781 227.812 148.936 227.812 152.812C227.812 156.689 224.658 159.844 220.781 159.844Z" fill="#BA181B"/>
<path d="M241.875 197.344C236.705 197.344 232.5 201.548 232.5 206.719C232.5 211.889 236.705 216.094 241.875 216.094C247.045 216.094 251.25 211.889 251.25 206.719C251.25 201.548 247.045 197.344 241.875 197.344ZM241.875 211.406C239.29 211.406 237.188 209.304 237.188 206.719C237.188 204.134 239.29 202.031 241.875 202.031C244.46 202.031 246.562 204.134 246.562 206.719C246.562 209.304 244.46 211.406 241.875 211.406Z" fill="#BA181B"/>
<path d="M263.428 131.766L251.709 129.422C250.434 129.164 249.204 129.991 248.951 131.259L246.607 142.978L251.203 143.899L252.466 137.59C254.737 142.315 255.937 147.523 255.937 152.812C255.937 160.894 253.27 168.492 248.226 174.785L251.885 177.717C257.522 170.684 260.625 161.841 260.625 152.812C260.625 146.674 259.207 140.623 256.509 135.162L262.509 136.362L263.428 131.766Z" fill="#BA181B"/>
<defs>
<clipPath id="clip0_301_47">
<rect width="35" height="35" fill="white" transform="translate(17 177)"/>
</clipPath>
</defs>
</svg>
