<svg width="300" height="90" viewBox="0 0 382 60" fill="none" xmlns="http://www.w3.org/2000/svg">
<path d="M3.76571 47.4579C2.67545 47.4579 1.82504 47.1526 1.2145 46.5421C0.647559 45.9315 0.364091 45.0811 0.364091 43.9909V4.34894C0.364091 3.21506 0.669364 2.36466 1.27991 1.79772C1.89046 1.18717 2.74086 0.8819 3.83113 0.8819H19.4655C24.4371 0.8819 28.2748 2.1248 30.9787 4.6106C33.6825 7.05279 35.0344 10.498 35.0344 14.9463C35.0344 19.4382 33.6825 22.927 30.9787 25.4128C28.2748 27.855 24.4371 29.0761 19.4655 29.0761H7.16733V43.9909C7.16733 45.0811 6.88386 45.9315 6.31692 46.5421C5.74999 47.1526 4.89958 47.4579 3.76571 47.4579ZM7.16733 23.6466H18.4843C21.755 23.6466 24.219 22.927 25.8762 21.4879C27.577 20.0051 28.4274 17.8246 28.4274 14.9463C28.4274 12.1116 27.577 9.97469 25.8762 8.53554C24.219 7.05279 21.755 6.31141 18.4843 6.31141H7.16733V23.6466ZM44.8861 47.3925C43.8395 47.3925 43.0327 47.0872 42.4658 46.4767C41.8988 45.8225 41.6154 44.9285 41.6154 43.7946V18.2825C41.6154 17.1486 41.8988 16.2764 42.4658 15.6659C43.0327 15.0553 43.8395 14.75 44.8861 14.75C45.9328 14.75 46.7396 15.0553 47.3065 15.6659C47.9171 16.2764 48.2223 17.1486 48.2223 18.2825V43.7946C48.2223 44.9285 47.9389 45.8225 47.3719 46.4767C46.805 47.0872 45.9764 47.3925 44.8861 47.3925ZM44.8861 7.9468C43.5778 7.9468 42.553 7.61972 41.8116 6.96556C41.1138 6.31141 40.765 5.39559 40.765 4.2181C40.765 2.99701 41.1138 2.08119 41.8116 1.47064C42.553 0.816485 43.5778 0.489407 44.8861 0.489407C46.1945 0.489407 47.1975 0.816485 47.8953 1.47064C48.6366 2.08119 49.0073 2.99701 49.0073 4.2181C49.0073 5.39559 48.6366 6.31141 47.8953 6.96556C47.1975 7.61972 46.1945 7.9468 44.8861 7.9468ZM58.6342 47.3925C57.8492 47.3925 57.195 47.1744 56.6717 46.7383C56.192 46.2586 55.9303 45.6699 55.8867 44.9721C55.8867 44.2743 56.192 43.5112 56.8025 42.6826L67.8578 28.8798V32.1506L57.5221 19.2637C56.8243 18.4787 56.4973 17.7374 56.5409 17.0396C56.5845 16.2982 56.868 15.7095 57.3913 15.2734C57.9146 14.8373 58.547 14.6192 59.2883 14.6192C60.1169 14.6192 60.7929 14.7718 61.3162 15.0771C61.8832 15.3388 62.4065 15.7967 62.8862 16.4508L71.5865 27.5061H69.2315L77.9972 16.4508C78.477 15.7967 78.9785 15.3388 79.5018 15.0771C80.0687 14.7718 80.7447 14.6192 81.5297 14.6192C82.3147 14.6192 82.947 14.8591 83.4267 15.3388C83.9501 15.7749 84.2117 16.3636 84.2117 17.105C84.2553 17.8028 83.9501 18.5442 83.2959 19.3291L72.9602 32.0198V29.0761L84.0155 42.6826C84.6696 43.4675 84.9749 44.2307 84.9313 44.9721C84.9313 45.6699 84.6696 46.2586 84.1463 46.7383C83.623 47.1744 82.9688 47.3925 82.1839 47.3925C81.3989 47.3925 80.7229 47.2399 80.156 46.9346C79.6326 46.6293 79.1093 46.1714 78.586 45.5609L69.2315 33.786H71.4557L62.1666 45.5609C61.6869 46.1278 61.1636 46.5857 60.5967 46.9346C60.0733 47.2399 59.4192 47.3925 58.6342 47.3925Z" fill="#fff"/>
<path d="M106.53 47.5887C103.259 47.5887 100.425 46.9128 98.0262 45.5609C95.6712 44.1653 93.8396 42.2247 92.5313 39.7389C91.223 37.2094 90.5688 34.2439 90.5688 30.8423C90.5688 28.3129 90.9395 26.0452 91.6809 24.0391C92.4223 21.9894 93.4689 20.2668 94.8208 18.8712C96.2164 17.4757 97.8954 16.4072 99.8579 15.6659C101.864 14.8809 104.088 14.4884 106.53 14.4884C108.057 14.4884 109.648 14.7282 111.306 15.2079C113.006 15.6441 114.576 16.3854 116.016 17.4321C116.582 17.781 116.931 18.2171 117.062 18.7404C117.237 19.2201 117.258 19.7216 117.128 20.245C117.04 20.7683 116.801 21.2262 116.408 21.6187C116.059 21.9676 115.623 22.1856 115.1 22.2728C114.576 22.3165 114.009 22.1638 113.399 21.8149C112.352 21.0736 111.284 20.5502 110.194 20.245C109.103 19.8961 108.057 19.7216 107.054 19.7216C105.484 19.7216 104.088 19.9833 102.867 20.5066C101.689 20.9863 100.686 21.7059 99.8579 22.6653C99.0293 23.5812 98.3969 24.7368 97.9608 26.1324C97.5683 27.5279 97.3721 29.1197 97.3721 30.9077C97.3721 34.4838 98.2007 37.2967 99.8579 39.3464C101.559 41.3524 103.957 42.3555 107.054 42.3555C108.057 42.3555 109.103 42.2028 110.194 41.8976C111.284 41.5923 112.352 41.069 113.399 40.3276C114.009 39.9787 114.576 39.8479 115.1 39.9351C115.623 40.0223 116.037 40.2622 116.343 40.6547C116.692 41.0036 116.91 41.4397 116.997 41.963C117.128 42.4427 117.106 42.9442 116.931 43.4675C116.757 43.9909 116.386 44.427 115.819 44.7759C114.424 45.7789 112.897 46.4985 111.24 46.9346C109.627 47.3707 108.057 47.5887 106.53 47.5887ZM136.231 47.5887C133.004 47.5887 130.213 46.9128 127.858 45.5609C125.546 44.2089 123.737 42.2901 122.428 39.8043C121.12 37.3185 120.466 34.3966 120.466 31.0386C120.466 28.4655 120.837 26.176 121.578 24.1699C122.319 22.1638 123.366 20.4412 124.718 19.0021C126.113 17.5193 127.771 16.4072 129.689 15.6659C131.652 14.8809 133.832 14.4884 136.231 14.4884C139.415 14.4884 142.162 15.1643 144.473 16.5163C146.828 17.8682 148.66 19.787 149.968 22.2728C151.277 24.715 151.931 27.6369 151.931 31.0386C151.931 33.568 151.56 35.8575 150.819 37.9072C150.077 39.9569 149.009 41.7013 147.613 43.1405C146.261 44.5796 144.604 45.6917 142.642 46.4767C140.723 47.2181 138.586 47.5887 136.231 47.5887ZM136.231 42.4863C138.019 42.4863 139.589 42.0502 140.941 41.178C142.293 40.3058 143.34 39.0193 144.081 37.3185C144.866 35.6177 145.258 33.5244 145.258 31.0386C145.258 27.2881 144.43 24.4534 142.773 22.5345C141.115 20.6157 138.935 19.6562 136.231 19.6562C134.399 19.6562 132.808 20.0923 131.456 20.9645C130.104 21.7931 129.035 23.0578 128.25 24.7586C127.509 26.4595 127.138 28.5528 127.138 31.0386C127.138 34.7455 127.967 37.5801 129.624 39.5426C131.281 41.5051 133.484 42.4863 136.231 42.4863ZM162.622 47.4579C161.575 47.4579 160.768 47.1744 160.201 46.6075C159.634 45.997 159.351 45.1684 159.351 44.1217V17.9554C159.351 16.8651 159.634 16.0365 160.201 15.4696C160.768 14.9027 161.553 14.6192 162.556 14.6192C163.603 14.6192 164.388 14.9027 164.911 15.4696C165.478 16.0365 165.762 16.8651 165.762 17.9554V23.0578L165.042 21.8804C166.002 19.4382 167.506 17.6065 169.556 16.3854C171.605 15.1207 173.96 14.4884 176.621 14.4884C179.15 14.4884 181.243 14.9681 182.901 15.9275C184.601 16.8433 185.866 18.2607 186.695 20.1795C187.523 22.0548 187.938 24.4316 187.938 27.3099V44.1217C187.938 45.1684 187.654 45.997 187.087 46.6075C186.52 47.1744 185.713 47.4579 184.667 47.4579C183.577 47.4579 182.748 47.1744 182.181 46.6075C181.614 45.997 181.331 45.1684 181.331 44.1217V27.7024C181.331 24.9549 180.785 22.9488 179.695 21.6841C178.649 20.4194 176.991 19.7871 174.724 19.7871C172.063 19.7871 169.926 20.6157 168.313 22.2728C166.743 23.93 165.958 26.1542 165.958 28.9453V44.1217C165.958 46.3458 164.846 47.4579 162.622 47.4579ZM209.086 47.4579C208.17 47.4579 207.363 47.2181 206.665 46.7383C206.011 46.2586 205.466 45.5172 205.03 44.5142L194.106 19.1329C193.757 18.3479 193.626 17.6065 193.713 16.9088C193.8 16.211 194.127 15.6659 194.694 15.2734C195.261 14.8373 196.024 14.6192 196.984 14.6192C197.812 14.6192 198.467 14.8155 198.946 15.2079C199.426 15.6004 199.862 16.2764 200.255 17.2358L210.132 41.5705H208.301L218.375 17.2358C218.767 16.2764 219.203 15.6004 219.683 15.2079C220.206 14.8155 220.926 14.6192 221.842 14.6192C222.627 14.6192 223.237 14.8373 223.674 15.2734C224.153 15.6659 224.437 16.211 224.524 16.9088C224.655 17.5629 224.546 18.2825 224.197 19.0675L213.142 44.5142C212.749 45.5172 212.204 46.2586 211.506 46.7383C210.808 47.2181 210.002 47.4579 209.086 47.4579ZM245.113 47.5887C241.624 47.5887 238.615 46.9346 236.086 45.6263C233.6 44.2743 231.659 42.3773 230.264 39.9351C228.912 37.4493 228.236 34.5056 228.236 31.104C228.236 27.7896 228.912 24.8895 230.264 22.4037C231.616 19.9179 233.469 17.9772 235.824 16.5817C238.179 15.1861 240.861 14.4884 243.87 14.4884C246.094 14.4884 248.079 14.8591 249.823 15.6004C251.567 16.2982 253.05 17.3449 254.271 18.7404C255.536 20.0923 256.474 21.7495 257.084 23.712C257.738 25.6745 258.065 27.8768 258.065 30.319C258.065 31.0604 257.847 31.6273 257.411 32.0198C256.975 32.3687 256.321 32.5431 255.449 32.5431H233.469V28.4873H253.617L252.505 29.4032C252.505 27.2226 252.178 25.3692 251.524 23.8428C250.913 22.3165 249.976 21.1608 248.711 20.3758C247.49 19.5472 245.963 19.1329 244.132 19.1329C242.082 19.1329 240.338 19.6126 238.899 20.572C237.503 21.5315 236.435 22.8616 235.693 24.5624C234.952 26.2632 234.581 28.2475 234.581 30.5152V30.9077C234.581 34.7455 235.475 37.6455 237.263 39.608C239.095 41.5269 241.733 42.4863 245.178 42.4863C246.487 42.4863 247.86 42.3119 249.3 41.963C250.782 41.6141 252.178 41.0254 253.486 40.1968C254.228 39.7607 254.882 39.5644 255.449 39.608C256.059 39.6516 256.539 39.8479 256.888 40.1968C257.28 40.5456 257.52 40.9818 257.607 41.5051C257.695 42.0284 257.607 42.5735 257.346 43.1405C257.084 43.6638 256.626 44.1435 255.972 44.5796C254.489 45.5827 252.767 46.3458 250.804 46.8692C248.842 47.3489 246.945 47.5887 245.113 47.5887ZM268.604 47.4579C267.514 47.4579 266.686 47.1744 266.119 46.6075C265.552 45.997 265.268 45.1684 265.268 44.1217V17.9554C265.268 16.8651 265.552 16.0365 266.119 15.4696C266.686 14.9027 267.471 14.6192 268.474 14.6192C269.52 14.6192 270.305 14.9027 270.829 15.4696C271.395 16.0365 271.679 16.8651 271.679 17.9554V22.7308H271.025C271.723 20.1141 273.009 18.1299 274.884 16.7779C276.76 15.426 279.158 14.641 282.08 14.423C282.865 14.3793 283.476 14.5756 283.912 15.0117C284.391 15.4478 284.653 16.1238 284.697 17.0396C284.784 17.9554 284.588 18.6968 284.108 19.2637C283.628 19.787 282.887 20.0923 281.884 20.1795L280.641 20.3104C277.806 20.572 275.648 21.4661 274.165 22.9924C272.682 24.5188 271.941 26.6121 271.941 29.2723V44.1217C271.941 45.1684 271.657 45.997 271.09 46.6075C270.567 47.1744 269.738 47.4579 268.604 47.4579ZM305.067 47.5887C302.45 47.5887 300.248 47.1308 298.46 46.215C296.671 45.2992 295.341 43.9473 294.469 42.1592C293.597 40.3712 293.161 38.1907 293.161 35.6177V20.1795H289.236C288.364 20.1795 287.688 19.9615 287.208 19.5254C286.728 19.0457 286.488 18.4133 286.488 17.6283C286.488 16.7997 286.728 16.1674 287.208 15.7313C287.688 15.2952 288.364 15.0771 289.236 15.0771H293.161V8.3393C293.161 7.24903 293.444 6.42043 294.011 5.8535C294.622 5.28656 295.45 5.00309 296.497 5.00309C297.544 5.00309 298.35 5.28656 298.917 5.8535C299.484 6.42043 299.768 7.24903 299.768 8.3393V15.0771H307.421C308.294 15.0771 308.97 15.2952 309.449 15.7313C309.929 16.1674 310.169 16.7997 310.169 17.6283C310.169 18.4133 309.929 19.0457 309.449 19.5254C308.97 19.9615 308.294 20.1795 307.421 20.1795H299.768V35.0943C299.768 37.4057 300.248 39.1501 301.207 40.3276C302.21 41.5051 303.824 42.0938 306.048 42.0938C306.833 42.0938 307.509 42.0284 308.076 41.8976C308.686 41.7231 309.188 41.6141 309.58 41.5705C310.06 41.5705 310.452 41.7449 310.758 42.0938C311.063 42.3991 311.216 43.0096 311.216 43.9255C311.216 44.5796 311.085 45.1902 310.823 45.7571C310.605 46.324 310.191 46.6947 309.58 46.8692C309.057 47.0436 308.337 47.1962 307.421 47.3271C306.549 47.5015 305.764 47.5887 305.067 47.5887ZM319.198 47.3925C318.151 47.3925 317.344 47.0872 316.777 46.4767C316.211 45.8225 315.927 44.9285 315.927 43.7946V18.2825C315.927 17.1486 316.211 16.2764 316.777 15.6659C317.344 15.0553 318.151 14.75 319.198 14.75C320.245 14.75 321.051 15.0553 321.618 15.6659C322.229 16.2764 322.534 17.1486 322.534 18.2825V43.7946C322.534 44.9285 322.251 45.8225 321.684 46.4767C321.117 47.0872 320.288 47.3925 319.198 47.3925ZM319.198 7.9468C317.89 7.9468 316.865 7.61972 316.123 6.96556C315.426 6.31141 315.077 5.39559 315.077 4.2181C315.077 2.99701 315.426 2.08119 316.123 1.47064C316.865 0.816485 317.89 0.489407 319.198 0.489407C320.506 0.489407 321.509 0.816485 322.207 1.47064C322.948 2.08119 323.319 2.99701 323.319 4.2181C323.319 5.39559 322.948 6.31141 322.207 6.96556C321.509 7.61972 320.506 7.9468 319.198 7.9468ZM337.067 47.4579C336.02 47.4579 335.192 47.1744 334.581 46.6075C334.014 45.997 333.731 45.1684 333.731 44.1217V20.1795H330.068C329.239 20.1795 328.585 19.9615 328.105 19.5254C327.625 19.0457 327.386 18.4133 327.386 17.6283C327.386 16.7997 327.625 16.1674 328.105 15.7313C328.585 15.2952 329.239 15.0771 330.068 15.0771H335.628L333.731 16.8433V14.4884C333.731 10.1709 334.799 6.92195 336.936 4.74143C339.073 2.51729 342.191 1.20898 346.291 0.816485L348.319 0.685655C349.06 0.598433 349.649 0.707459 350.085 1.01273C350.521 1.31801 350.804 1.7105 350.935 2.19021C351.066 2.66993 351.066 3.17145 350.935 3.69478C350.848 4.17449 350.63 4.6106 350.281 5.00309C349.932 5.39559 349.496 5.61364 348.973 5.65725L347.73 5.72266C345.157 5.94072 343.282 6.6821 342.104 7.9468C340.927 9.1679 340.338 11.0431 340.338 13.5726V16.1238L339.422 15.0771H346.683C347.599 15.0771 348.275 15.2952 348.711 15.7313C349.191 16.1674 349.431 16.7997 349.431 17.6283C349.431 18.4133 349.191 19.0457 348.711 19.5254C348.275 19.9615 347.599 20.1795 346.683 20.1795H340.338V44.1217C340.338 46.3458 339.248 47.4579 337.067 47.4579ZM361.46 59.2327C360.675 59.2327 360.021 59.0147 359.498 58.5786C359.018 58.1861 358.734 57.641 358.647 56.9432C358.604 56.289 358.734 55.5695 359.04 54.7845L363.488 44.7759V47.5887L351.255 19.1329C350.95 18.3479 350.841 17.6065 350.928 16.9088C351.015 16.211 351.342 15.6659 351.909 15.2734C352.476 14.8373 353.239 14.6192 354.199 14.6192C355.027 14.6192 355.682 14.8155 356.161 15.2079C356.641 15.6004 357.077 16.2764 357.47 17.2358L367.347 41.6359H365.516L375.524 17.2358C375.917 16.2328 376.375 15.5568 376.898 15.2079C377.421 14.8155 378.141 14.6192 379.057 14.6192C379.842 14.6192 380.452 14.8373 380.888 15.2734C381.368 15.6659 381.652 16.211 381.739 16.9088C381.87 17.5629 381.761 18.2825 381.412 19.0675L365.058 56.6815C364.622 57.6846 364.12 58.3605 363.553 58.7094C363.03 59.0583 362.332 59.2327 361.46 59.2327Z" fill="white"/>
</svg>
