<svg width="18" height="20" viewBox="0 0 18 20" fill="none" xmlns="http://www.w3.org/2000/svg">
<path d="M8.98885 19.8683C5.54506 19.8683 2.40335 17.9753 0.789577 14.9277L0.626465 14.6195L0.789577 14.3115C1.70766 12.5774 3.18488 11.1512 4.9486 10.2954C5.5815 9.98873 6.31847 9.99312 6.97158 10.3068C7.60361 10.6107 8.2824 10.7648 8.98863 10.7648C9.69508 10.7648 10.3739 10.6107 11.0057 10.3068C11.6588 9.9929 12.396 9.98873 13.0287 10.2954C14.7926 11.1512 16.2698 12.5777 17.1877 14.3115C17.3578 14.6329 17.2353 15.0314 16.9137 15.2017C16.5917 15.3725 16.1936 15.2494 16.0235 14.9277C15.2354 13.4395 13.9678 12.2152 12.4535 11.4807C12.1848 11.35 11.8649 11.3555 11.5762 11.4943C10.7651 11.8839 9.89442 12.0817 8.98885 12.0817C8.08328 12.0817 7.21284 11.8839 6.40102 11.4938C6.11233 11.3549 5.79225 11.3498 5.52355 11.4802C4.11526 12.1634 2.92013 13.2703 2.12564 14.6195C3.55413 17.0537 6.15229 18.5511 8.98885 18.5511C9.55524 18.5511 10.121 18.4914 10.67 18.3733C11.0239 18.2962 11.3758 18.523 11.4522 18.8789C11.5288 19.2343 11.3023 19.5847 10.9466 19.6611C10.3069 19.7987 9.64832 19.8683 8.98885 19.8683Z" fill="#EB5757"/>
<path d="M8.98882 9.71419C6.34105 9.71419 4.18701 7.55993 4.18701 4.91216C4.18701 2.26439 6.34105 0.110352 8.98882 0.110352C11.6366 0.110352 13.7906 2.26439 13.7906 4.91216C13.7906 7.55993 11.6366 9.71419 8.98882 9.71419ZM8.98882 1.42754C7.06748 1.42754 5.5042 2.99082 5.5042 4.91216C5.5042 6.83372 7.06748 8.397 8.98882 8.397C10.9102 8.397 12.4734 6.83372 12.4734 4.91216C12.4734 2.99082 10.9102 1.42754 8.98882 1.42754Z" fill="#EB5757"/>
<path d="M17.2142 17.7825C17.2228 17.7621 17.2274 17.7406 17.2338 17.7195C17.2397 17.6995 17.2474 17.6804 17.2516 17.6598C17.2599 17.6178 17.2643 17.5752 17.2643 17.5327C17.2643 17.532 17.2645 17.5316 17.2645 17.5311C17.2645 17.4879 17.2599 17.4446 17.2516 17.402C17.2476 17.3825 17.2404 17.3645 17.2349 17.3456C17.2283 17.3234 17.2232 17.3008 17.2142 17.2793C17.2048 17.2565 17.1919 17.2359 17.18 17.2143C17.1712 17.1983 17.1642 17.1816 17.1539 17.1663C17.1295 17.1298 17.1018 17.0958 17.0709 17.0648L15.3932 15.3872C15.1359 15.1299 14.7193 15.1299 14.462 15.3872C14.2047 15.6442 14.2047 16.0614 14.462 16.3184L15.0161 16.8725H13.3465C12.5955 16.8725 11.9848 16.2618 11.9848 15.5108V14.5863C11.9848 14.2226 11.69 13.9277 11.3262 13.9277C10.9624 13.9277 10.6676 14.2226 10.6676 14.5863V15.5108C10.6676 16.988 11.8695 18.1897 13.3465 18.1897H15.0163L14.462 18.744C14.2047 19.0013 14.2047 19.4182 14.462 19.6753C14.5906 19.8037 14.759 19.868 14.9276 19.868C15.0962 19.868 15.2648 19.8037 15.3932 19.6751L17.0709 17.9972C17.1018 17.9662 17.1297 17.9322 17.1541 17.8955C17.1638 17.8811 17.1701 17.8655 17.1787 17.8505C17.191 17.8281 17.2044 17.8064 17.2142 17.7825Z" fill="#EB5757"/>
</svg>
