<svg width="190" height="44" viewBox="0 0 190 44" fill="none" xmlns="http://www.w3.org/2000/svg">
<path d="M4.288 33.224C3.75467 33.224 3.33867 33.0747 3.04 32.776C2.76267 32.4773 2.624 32.0613 2.624 31.528V12.136C2.624 11.5813 2.77333 11.1653 3.072 10.888C3.37067 10.5893 3.78667 10.44 4.32 10.44H11.968C14.4 10.44 16.2773 11.048 17.6 12.264C18.9227 13.4587 19.584 15.144 19.584 17.32C19.584 19.5173 18.9227 21.224 17.6 22.44C16.2773 23.6347 14.4 24.232 11.968 24.232H5.952V31.528C5.952 32.0613 5.81333 32.4773 5.536 32.776C5.25867 33.0747 4.84267 33.224 4.288 33.224ZM5.952 21.576H11.488C13.088 21.576 14.2933 21.224 15.104 20.52C15.936 19.7947 16.352 18.728 16.352 17.32C16.352 15.9333 15.936 14.888 15.104 14.184C14.2933 13.4587 13.088 13.096 11.488 13.096H5.952V21.576ZM24.4033 33.192C23.8913 33.192 23.4966 33.0427 23.2193 32.744C22.9419 32.424 22.8033 31.9867 22.8033 31.432V18.952C22.8033 18.3973 22.9419 17.9707 23.2193 17.672C23.4966 17.3733 23.8913 17.224 24.4033 17.224C24.9153 17.224 25.3099 17.3733 25.5873 17.672C25.8859 17.9707 26.0353 18.3973 26.0353 18.952V31.432C26.0353 31.9867 25.8966 32.424 25.6193 32.744C25.3419 33.0427 24.9366 33.192 24.4033 33.192ZM24.4033 13.896C23.7633 13.896 23.2619 13.736 22.8993 13.416C22.5579 13.096 22.3873 12.648 22.3873 12.072C22.3873 11.4747 22.5579 11.0267 22.8993 10.728C23.2619 10.408 23.7633 10.248 24.4033 10.248C25.0433 10.248 25.5339 10.408 25.8753 10.728C26.2379 11.0267 26.4193 11.4747 26.4193 12.072C26.4193 12.648 26.2379 13.096 25.8753 13.416C25.5339 13.736 25.0433 13.896 24.4033 13.896ZM31.1285 33.192C30.7445 33.192 30.4245 33.0853 30.1685 32.872C29.9338 32.6373 29.8058 32.3493 29.7845 32.008C29.7845 31.6667 29.9338 31.2933 30.2325 30.888L35.6405 24.136V25.736L30.5845 19.432C30.2432 19.048 30.0832 18.6853 30.1045 18.344C30.1258 17.9813 30.2645 17.6933 30.5205 17.48C30.7765 17.2667 31.0858 17.16 31.4485 17.16C31.8538 17.16 32.1845 17.2347 32.4405 17.384C32.7178 17.512 32.9738 17.736 33.2085 18.056L37.4645 23.464H36.3125L40.6005 18.056C40.8352 17.736 41.0805 17.512 41.3365 17.384C41.6138 17.2347 41.9445 17.16 42.3285 17.16C42.7125 17.16 43.0218 17.2773 43.2565 17.512C43.5125 17.7253 43.6405 18.0133 43.6405 18.376C43.6618 18.7173 43.5125 19.08 43.1925 19.464L38.1365 25.672V24.232L43.5445 30.888C43.8645 31.272 44.0138 31.6453 43.9925 32.008C43.9925 32.3493 43.8645 32.6373 43.6085 32.872C43.3525 33.0853 43.0325 33.192 42.6485 33.192C42.2645 33.192 41.9338 33.1173 41.6565 32.968C41.4005 32.8187 41.1445 32.5947 40.8885 32.296L36.3125 26.536H37.4005L32.8565 32.296C32.6218 32.5733 32.3658 32.7973 32.0885 32.968C31.8325 33.1173 31.5125 33.192 31.1285 33.192Z" fill="#BA181B"/>
<path d="M54.5583 33.288C52.9583 33.288 51.5716 32.9573 50.3983 32.296C49.2463 31.6133 48.3503 30.664 47.7103 29.448C47.0703 28.2107 46.7503 26.76 46.7503 25.096C46.7503 23.8587 46.9316 22.7493 47.2943 21.768C47.6569 20.7653 48.1689 19.9227 48.8303 19.24C49.5129 18.5573 50.3343 18.0347 51.2943 17.672C52.2756 17.288 53.3636 17.096 54.5583 17.096C55.3049 17.096 56.0836 17.2133 56.8943 17.448C57.7263 17.6613 58.4943 18.024 59.1983 18.536C59.4756 18.7067 59.6463 18.92 59.7103 19.176C59.7956 19.4107 59.8063 19.656 59.7423 19.912C59.6996 20.168 59.5823 20.392 59.3903 20.584C59.2196 20.7547 59.0063 20.8613 58.7503 20.904C58.4943 20.9253 58.2169 20.8507 57.9183 20.68C57.4063 20.3173 56.8836 20.0613 56.3503 19.912C55.8169 19.7413 55.3049 19.656 54.8142 19.656C54.0463 19.656 53.3636 19.784 52.7663 20.04C52.1903 20.2747 51.6996 20.6267 51.2943 21.096C50.8889 21.544 50.5796 22.1093 50.3663 22.792C50.1743 23.4747 50.0783 24.2533 50.0783 25.128C50.0783 26.8773 50.4836 28.2533 51.2943 29.256C52.1263 30.2373 53.2996 30.728 54.8142 30.728C55.3049 30.728 55.8169 30.6533 56.3503 30.504C56.8836 30.3547 57.4063 30.0987 57.9183 29.736C58.2169 29.5653 58.4943 29.5013 58.7503 29.544C59.0063 29.5867 59.2089 29.704 59.3583 29.896C59.5289 30.0667 59.6356 30.28 59.6783 30.536C59.7423 30.7707 59.7316 31.016 59.6463 31.272C59.5609 31.528 59.3796 31.7413 59.1023 31.912C58.4196 32.4027 57.6729 32.7547 56.8623 32.968C56.0729 33.1813 55.3049 33.288 54.5583 33.288ZM69.0873 33.288C67.5086 33.288 66.1433 32.9573 64.9913 32.296C63.8606 31.6347 62.9753 30.696 62.3353 29.48C61.6953 28.264 61.3753 26.8347 61.3753 25.192C61.3753 23.9333 61.5566 22.8133 61.9193 21.832C62.2819 20.8507 62.7939 20.008 63.4553 19.304C64.1379 18.5787 64.9486 18.0347 65.8873 17.672C66.8473 17.288 67.9139 17.096 69.0873 17.096C70.6446 17.096 71.9886 17.4267 73.1193 18.088C74.2713 18.7493 75.1673 19.688 75.8073 20.904C76.4473 22.0987 76.7673 23.528 76.7673 25.192C76.7673 26.4293 76.5859 27.5493 76.2233 28.552C75.8606 29.5547 75.3379 30.408 74.6553 31.112C73.9939 31.816 73.1833 32.36 72.2233 32.744C71.2846 33.1067 70.2393 33.288 69.0873 33.288ZM69.0873 30.792C69.9619 30.792 70.7299 30.5787 71.3913 30.152C72.0526 29.7253 72.5646 29.096 72.9273 28.264C73.3113 27.432 73.5033 26.408 73.5033 25.192C73.5033 23.3573 73.0979 21.9707 72.2873 21.032C71.4766 20.0933 70.4099 19.624 69.0873 19.624C68.1913 19.624 67.4126 19.8373 66.7513 20.264C66.0899 20.6693 65.5673 21.288 65.1833 22.12C64.8206 22.952 64.6393 23.976 64.6393 25.192C64.6393 27.0053 65.0446 28.392 65.8553 29.352C66.6659 30.312 67.7433 30.792 69.0873 30.792ZM81.997 33.224C81.485 33.224 81.0903 33.0853 80.813 32.808C80.5357 32.5093 80.397 32.104 80.397 31.592V18.792C80.397 18.2587 80.5357 17.8533 80.813 17.576C81.0903 17.2987 81.4743 17.16 81.965 17.16C82.477 17.16 82.861 17.2987 83.117 17.576C83.3943 17.8533 83.533 18.2587 83.533 18.792V21.288L83.181 20.712C83.6503 19.5173 84.3863 18.6213 85.389 18.024C86.3917 17.4053 87.5437 17.096 88.845 17.096C90.0823 17.096 91.1063 17.3307 91.917 17.8C92.749 18.248 93.3677 18.9413 93.773 19.88C94.1783 20.7973 94.381 21.96 94.381 23.368V31.592C94.381 32.104 94.2423 32.5093 93.965 32.808C93.6877 33.0853 93.293 33.224 92.781 33.224C92.2477 33.224 91.8423 33.0853 91.565 32.808C91.2877 32.5093 91.149 32.104 91.149 31.592V23.56C91.149 22.216 90.8823 21.2347 90.349 20.616C89.837 19.9973 89.0263 19.688 87.917 19.688C86.6157 19.688 85.5703 20.0933 84.781 20.904C84.013 21.7147 83.629 22.8027 83.629 24.168V31.592C83.629 32.68 83.085 33.224 81.997 33.224ZM104.726 33.224C104.278 33.224 103.884 33.1067 103.542 32.872C103.222 32.6373 102.956 32.2747 102.742 31.784L97.3983 19.368C97.2276 18.984 97.1636 18.6213 97.2063 18.28C97.2489 17.9387 97.4089 17.672 97.6863 17.48C97.9636 17.2667 98.3369 17.16 98.8063 17.16C99.2116 17.16 99.5316 17.256 99.7663 17.448C100.001 17.64 100.214 17.9707 100.406 18.44L105.238 30.344H104.342L109.27 18.44C109.462 17.9707 109.676 17.64 109.91 17.448C110.166 17.256 110.518 17.16 110.966 17.16C111.35 17.16 111.649 17.2667 111.862 17.48C112.097 17.672 112.236 17.9387 112.278 18.28C112.342 18.6 112.289 18.952 112.118 19.336L106.71 31.784C106.518 32.2747 106.252 32.6373 105.91 32.872C105.569 33.1067 105.174 33.224 104.726 33.224ZM122.35 33.288C120.643 33.288 119.171 32.968 117.934 32.328C116.718 31.6667 115.769 30.7387 115.086 29.544C114.425 28.328 114.094 26.888 114.094 25.224C114.094 23.6027 114.425 22.184 115.086 20.968C115.747 19.752 116.654 18.8027 117.806 18.12C118.958 17.4373 120.27 17.096 121.742 17.096C122.83 17.096 123.801 17.2773 124.654 17.64C125.507 17.9813 126.233 18.4933 126.83 19.176C127.449 19.8373 127.907 20.648 128.206 21.608C128.526 22.568 128.686 23.6453 128.686 24.84C128.686 25.2027 128.579 25.48 128.366 25.672C128.153 25.8427 127.833 25.928 127.406 25.928H116.654V23.944H126.51L125.966 24.392C125.966 23.3253 125.806 22.4187 125.486 21.672C125.187 20.9253 124.729 20.36 124.11 19.976C123.513 19.5707 122.766 19.368 121.87 19.368C120.867 19.368 120.014 19.6027 119.31 20.072C118.627 20.5413 118.105 21.192 117.742 22.024C117.379 22.856 117.198 23.8267 117.198 24.936V25.128C117.198 27.0053 117.635 28.424 118.51 29.384C119.406 30.3227 120.697 30.792 122.382 30.792C123.022 30.792 123.694 30.7067 124.398 30.536C125.123 30.3653 125.806 30.0773 126.446 29.672C126.809 29.4587 127.129 29.3627 127.406 29.384C127.705 29.4053 127.939 29.5013 128.11 29.672C128.302 29.8427 128.419 30.056 128.462 30.312C128.505 30.568 128.462 30.8347 128.334 31.112C128.206 31.368 127.982 31.6027 127.662 31.816C126.937 32.3067 126.094 32.68 125.134 32.936C124.174 33.1707 123.246 33.288 122.35 33.288ZM133.842 33.224C133.308 33.224 132.903 33.0853 132.626 32.808C132.348 32.5093 132.21 32.104 132.21 31.592V18.792C132.21 18.2587 132.348 17.8533 132.626 17.576C132.903 17.2987 133.287 17.16 133.778 17.16C134.29 17.16 134.674 17.2987 134.93 17.576C135.207 17.8533 135.346 18.2587 135.346 18.792V21.128H135.026C135.367 19.848 135.996 18.8773 136.914 18.216C137.831 17.5547 139.004 17.1707 140.434 17.064C140.818 17.0427 141.116 17.1387 141.33 17.352C141.564 17.5653 141.692 17.896 141.714 18.344C141.756 18.792 141.66 19.1547 141.426 19.432C141.191 19.688 140.828 19.8373 140.338 19.88L139.73 19.944C138.343 20.072 137.287 20.5093 136.562 21.256C135.836 22.0027 135.474 23.0267 135.474 24.328V31.592C135.474 32.104 135.335 32.5093 135.058 32.808C134.802 33.0853 134.396 33.224 133.842 33.224ZM151.678 33.288C150.398 33.288 149.321 33.064 148.446 32.616C147.571 32.168 146.921 31.5067 146.494 30.632C146.067 29.7573 145.854 28.6907 145.854 27.432V19.88H143.934C143.507 19.88 143.177 19.7733 142.942 19.56C142.707 19.3253 142.59 19.016 142.59 18.632C142.59 18.2267 142.707 17.9173 142.942 17.704C143.177 17.4907 143.507 17.384 143.934 17.384H145.854V14.088C145.854 13.5547 145.993 13.1493 146.27 12.872C146.569 12.5947 146.974 12.456 147.486 12.456C147.998 12.456 148.393 12.5947 148.67 12.872C148.947 13.1493 149.086 13.5547 149.086 14.088V17.384H152.83C153.257 17.384 153.587 17.4907 153.822 17.704C154.057 17.9173 154.174 18.2267 154.174 18.632C154.174 19.016 154.057 19.3253 153.822 19.56C153.587 19.7733 153.257 19.88 152.83 19.88H149.086V27.176C149.086 28.3067 149.321 29.16 149.79 29.736C150.281 30.312 151.07 30.6 152.158 30.6C152.542 30.6 152.873 30.568 153.15 30.504C153.449 30.4187 153.694 30.3653 153.886 30.344C154.121 30.344 154.313 30.4293 154.462 30.6C154.611 30.7493 154.686 31.048 154.686 31.496C154.686 31.816 154.622 32.1147 154.494 32.392C154.387 32.6693 154.185 32.8507 153.886 32.936C153.63 33.0213 153.278 33.096 152.83 33.16C152.403 33.2453 152.019 33.288 151.678 33.288ZM158.591 33.192C158.079 33.192 157.684 33.0427 157.407 32.744C157.129 32.424 156.991 31.9867 156.991 31.432V18.952C156.991 18.3973 157.129 17.9707 157.407 17.672C157.684 17.3733 158.079 17.224 158.591 17.224C159.103 17.224 159.497 17.3733 159.775 17.672C160.073 17.9707 160.223 18.3973 160.223 18.952V31.432C160.223 31.9867 160.084 32.424 159.807 32.744C159.529 33.0427 159.124 33.192 158.591 33.192ZM158.591 13.896C157.951 13.896 157.449 13.736 157.087 13.416C156.745 13.096 156.575 12.648 156.575 12.072C156.575 11.4747 156.745 11.0267 157.087 10.728C157.449 10.408 157.951 10.248 158.591 10.248C159.231 10.248 159.721 10.408 160.063 10.728C160.425 11.0267 160.607 11.4747 160.607 12.072C160.607 12.648 160.425 13.096 160.063 13.416C159.721 13.736 159.231 13.896 158.591 13.896ZM167.332 33.224C166.82 33.224 166.415 33.0853 166.116 32.808C165.839 32.5093 165.7 32.104 165.7 31.592V19.88H163.908C163.503 19.88 163.183 19.7733 162.948 19.56C162.713 19.3253 162.596 19.016 162.596 18.632C162.596 18.2267 162.713 17.9173 162.948 17.704C163.183 17.4907 163.503 17.384 163.908 17.384H166.628L165.7 18.248V17.096C165.7 14.984 166.223 13.3947 167.268 12.328C168.313 11.24 169.839 10.6 171.844 10.408L172.836 10.344C173.199 10.3013 173.487 10.3547 173.7 10.504C173.913 10.6533 174.052 10.8453 174.116 11.08C174.18 11.3147 174.18 11.56 174.116 11.816C174.073 12.0507 173.967 12.264 173.796 12.456C173.625 12.648 173.412 12.7547 173.156 12.776L172.548 12.808C171.289 12.9147 170.372 13.2773 169.796 13.896C169.22 14.4933 168.932 15.4107 168.932 16.648V17.896L168.484 17.384H172.036C172.484 17.384 172.815 17.4907 173.028 17.704C173.263 17.9173 173.38 18.2267 173.38 18.632C173.38 19.016 173.263 19.3253 173.028 19.56C172.815 19.7733 172.484 19.88 172.036 19.88H168.932V31.592C168.932 32.68 168.399 33.224 167.332 33.224ZM179.265 38.984C178.881 38.984 178.561 38.8773 178.305 38.664C178.07 38.472 177.931 38.2053 177.889 37.864C177.867 37.544 177.931 37.192 178.081 36.808L180.257 31.912V33.288L174.273 19.368C174.123 18.984 174.07 18.6213 174.113 18.28C174.155 17.9387 174.315 17.672 174.593 17.48C174.87 17.2667 175.243 17.16 175.713 17.16C176.118 17.16 176.438 17.256 176.673 17.448C176.907 17.64 177.121 17.9707 177.312 18.44L182.145 30.376H181.249L186.145 18.44C186.337 17.9493 186.561 17.6187 186.817 17.448C187.073 17.256 187.425 17.16 187.873 17.16C188.257 17.16 188.555 17.2667 188.769 17.48C189.003 17.672 189.142 17.9387 189.185 18.28C189.249 18.6 189.195 18.952 189.025 19.336L181.025 37.736C180.811 38.2267 180.566 38.5573 180.289 38.728C180.033 38.8987 179.691 38.984 179.265 38.984Z" fill="#161A1D"/>
</svg>
